G04 #@! TF.FileFunction,Copper,L2,Bot,Signal*
%FSLAX46Y46*%
G04 Gerber Fmt 4.6, Leading zero omitted, Abs format (unit mm)*
G04 Created by KiCad (PCBNEW (2015-08-26 BZR 6129, Git 2e41367)-product) date 9/23/2019 12:40:43 AM*
%MOMM*%
G01*
G04 APERTURE LIST*
%ADD10C,0.100000*%
%ADD11R,2.000000X1.800000*%
%ADD12O,2.000000X1.800000*%
%ADD13C,2.000000*%
%ADD14R,2.000000X2.000000*%
%ADD15O,1.500000X2.500000*%
%ADD16R,1.800000X1.800000*%
%ADD17C,1.800000*%
%ADD18R,1.300000X0.900000*%
%ADD19R,0.200000X1.210000*%
%ADD20C,0.600000*%
%ADD21C,1.000000*%
%ADD22C,0.200000*%
%ADD23C,0.199000*%
G04 APERTURE END LIST*
D10*
D11*
X10160000Y5460000D03*
D12*
X7620000Y5460000D03*
D13*
X10160000Y8000000D03*
D12*
X7620000Y8000000D03*
D13*
X10160000Y10540000D03*
D12*
X7620000Y10540000D03*
D14*
X16000000Y-2540000D03*
X13460000Y-2540000D03*
D13*
X16000000Y0D03*
D12*
X13460000Y0D03*
D13*
X16000000Y2540000D03*
D12*
X13460000Y2540000D03*
D15*
X460000Y1000000D03*
X3000000Y1000000D03*
X5540000Y1000000D03*
D16*
X-18270000Y-1905000D03*
D17*
X-15730000Y-635000D03*
X-18270000Y635000D03*
X-15730000Y1905000D03*
D18*
X1250000Y6950000D03*
X1250000Y9050000D03*
D19*
X1250000Y8000000D03*
D18*
X-1250000Y6950000D03*
X-1250000Y9050000D03*
D19*
X-1250000Y8000000D03*
D20*
X-6000000Y-7500000D03*
X-10000000Y-9700000D03*
X-11300000Y-10700000D03*
X-10500000Y5500000D03*
X0Y5000000D03*
X3250000Y-2000000D03*
X9000000Y0D03*
X7750000Y-2000000D03*
D21*
X10250000Y-6000000D03*
X8250000Y-6000000D03*
X10250000Y-9000000D03*
X8250000Y-9000000D03*
D20*
X-3000000Y-7500000D03*
X-4500000Y-6000000D03*
X-4500000Y-9000000D03*
X-4700000Y-2100000D03*
X-6400000Y100000D03*
X-7000000Y-800000D03*
X-1500000Y-8250000D03*
X-1500000Y-6750000D03*
X-7000000Y-4600000D03*
X-5200000Y-4600000D03*
X-4500000Y-7500000D03*
X-5250000Y-6750000D03*
X-3750000Y-6750000D03*
X-3750000Y-8250000D03*
X-5250000Y-8250000D03*
X-10500000Y9500000D03*
X0Y10000000D03*
X-5000000Y1000000D03*
X-8500000Y8000000D03*
X-7750000Y2500000D03*
X-4750000Y6500000D03*
X-5750000Y6500000D03*
X-2000000Y2500000D03*
X-7000000Y7250000D03*
X200000Y9000000D03*
X-3000000Y8400000D03*
D22*
X-3750000Y-6750000D02*
X-3750000Y-8250000D01*
X0Y10000000D02*
X-10000000Y10000000D01*
X0Y10000000D02*
X3000000Y10000000D01*
X-10000000Y10000000D02*
X-10500000Y9500000D01*
X3000000Y10000000D02*
X4000000Y9000000D01*
X4000000Y9000000D02*
X4000000Y6500000D01*
X5040000Y5460000D02*
X7620000Y5460000D01*
X4000000Y6500000D02*
X5040000Y5460000D01*
X-5000000Y1000000D02*
X-6250000Y1000000D01*
X-6250000Y1000000D02*
X-7750000Y2500000D01*
X-8500000Y8000000D02*
X-8500000Y3250000D01*
X-8500000Y3250000D02*
X-7750000Y2500000D01*
X8250000Y3349998D02*
X-2284310Y3349998D01*
X-2284310Y3349998D02*
X-4750000Y5815688D01*
X14730000Y1270000D02*
X12414312Y1270000D01*
X12414312Y1270000D02*
X10334314Y3349998D01*
X10334314Y3349998D02*
X8250000Y3349998D01*
X16000000Y2540000D02*
X14730000Y1270000D01*
X-4750000Y5815688D02*
X-4750000Y6500000D01*
X9000000Y3750000D02*
X-2118624Y3750000D01*
X-2118624Y3750000D02*
X-4000000Y5631376D01*
X-4000000Y5631376D02*
X-4000000Y6750000D01*
X-5125000Y7125000D02*
X-4375000Y7125000D01*
X-4375000Y7125000D02*
X-4250000Y7000000D01*
X-4250000Y7000000D02*
X-4000000Y6750000D01*
X11710000Y2540000D02*
X13460000Y2540000D01*
X10500000Y3750000D02*
X11710000Y2540000D01*
X9000000Y3750000D02*
X10500000Y3750000D01*
X-5750000Y6500000D02*
X-5125000Y7125000D01*
X-4209314Y7525002D02*
X-5290686Y7525002D01*
X-5565688Y7250000D02*
X-7000000Y7250000D01*
X-5290686Y7525002D02*
X-5565688Y7250000D01*
X-7000000Y7250000D02*
X-7000000Y6750000D01*
X-7000000Y6750000D02*
X-6000000Y5750000D01*
X-6000000Y5750000D02*
X-5250000Y5750000D01*
X-5250000Y5750000D02*
X-2000000Y2500000D01*
X-3599998Y5797062D02*
X-3599998Y6915686D01*
X-3599998Y6915686D02*
X-3967156Y7282844D01*
X4250000Y4150002D02*
X-1952938Y4150002D01*
X-1952938Y4150002D02*
X-3599998Y5797062D01*
X-3599998Y5797062D02*
X-3599998Y6915686D01*
X4250000Y4150002D02*
X-1584314Y4150002D01*
X-3967156Y7282844D02*
X-4209314Y7525002D01*
X10160000Y5460000D02*
X8850002Y4150002D01*
X8850002Y4150002D02*
X4250000Y4150002D01*
X4250000Y4150002D02*
X-1584314Y4150002D01*
X1250000Y8000000D02*
X1250000Y9050000D01*
X1250000Y9050000D02*
X250000Y9050000D01*
X250000Y9050000D02*
X200000Y9000000D01*
X-1250000Y8000000D02*
X-1250000Y9050000D01*
X-3000000Y8400000D02*
X-2350000Y9050000D01*
X-2350000Y9050000D02*
X-1250000Y9050000D01*
D23*
G36*
X6441365Y11261252D02*
X6321381Y11036962D01*
X6268679Y10890566D01*
X6329853Y10690500D01*
X7469500Y10690500D01*
X7469500Y10710500D01*
X7770500Y10710500D01*
X7770500Y10690500D01*
X7790500Y10690500D01*
X7790500Y10389500D01*
X7770500Y10389500D01*
X7770500Y10369500D01*
X7469500Y10369500D01*
X7469500Y10389500D01*
X6329853Y10389500D01*
X6268679Y10189434D01*
X6321381Y10043038D01*
X6441365Y9818748D01*
X6602800Y9622175D01*
X6799483Y9460874D01*
X7023855Y9341043D01*
X7251724Y9272005D01*
X7018027Y9201448D01*
X6794096Y9082381D01*
X6597556Y8922087D01*
X6435894Y8726671D01*
X6315267Y8503577D01*
X6240270Y8261301D01*
X6213760Y8009072D01*
X6236746Y7756498D01*
X6308353Y7513199D01*
X6425853Y7288442D01*
X6584771Y7090787D01*
X6779053Y6927765D01*
X7001300Y6805584D01*
X7242259Y6729147D01*
X7018027Y6661448D01*
X6794096Y6542381D01*
X6597556Y6382087D01*
X6435894Y6186671D01*
X6315267Y5963577D01*
X6314005Y5959500D01*
X5246900Y5959500D01*
X4499500Y6706900D01*
X4499500Y9000000D01*
X4494998Y9045912D01*
X4490976Y9091883D01*
X4490243Y9094404D01*
X4489987Y9097020D01*
X4476647Y9141205D01*
X4463779Y9185498D01*
X4462570Y9187830D01*
X4461811Y9190345D01*
X4440168Y9231049D01*
X4418917Y9272047D01*
X4417275Y9274104D01*
X4416044Y9276419D01*
X4386899Y9312154D01*
X4358097Y9348234D01*
X4354494Y9351888D01*
X4354431Y9351965D01*
X4354360Y9352024D01*
X4353200Y9353200D01*
X3353200Y10353200D01*
X3317519Y10382509D01*
X3282201Y10412144D01*
X3279902Y10413408D01*
X3277870Y10415077D01*
X3237171Y10436899D01*
X3196774Y10459108D01*
X3194272Y10459902D01*
X3191955Y10461144D01*
X3147843Y10474630D01*
X3103852Y10488585D01*
X3101238Y10488878D01*
X3098730Y10489645D01*
X3052841Y10494306D01*
X3006974Y10499451D01*
X3001842Y10499487D01*
X3001744Y10499497D01*
X3001653Y10499488D01*
X3000000Y10499500D01*
X489825Y10499500D01*
X448036Y10541582D01*
X334309Y10618292D01*
X207849Y10671451D01*
X73471Y10699035D01*
X-63704Y10699992D01*
X-198454Y10674287D01*
X-325644Y10622899D01*
X-440430Y10547785D01*
X-489737Y10499500D01*
X-10000000Y10499500D01*
X-10045912Y10494998D01*
X-10091883Y10490976D01*
X-10094404Y10490243D01*
X-10097020Y10489987D01*
X-10141205Y10476647D01*
X-10185498Y10463779D01*
X-10187829Y10462570D01*
X-10190345Y10461811D01*
X-10231089Y10440147D01*
X-10272047Y10418916D01*
X-10274100Y10417277D01*
X-10276419Y10416044D01*
X-10312182Y10386877D01*
X-10348234Y10358097D01*
X-10351888Y10354494D01*
X-10351965Y10354431D01*
X-10352024Y10354360D01*
X-10353200Y10353200D01*
X-10506805Y10199595D01*
X-10563704Y10199992D01*
X-10698454Y10174287D01*
X-10825644Y10122899D01*
X-10940430Y10047785D01*
X-11038441Y9951806D01*
X-11115943Y9838617D01*
X-11169983Y9712531D01*
X-11198505Y9578350D01*
X-11200420Y9441184D01*
X-11175656Y9306259D01*
X-11125157Y9178713D01*
X-11050846Y9063405D01*
X-10955554Y8964726D01*
X-10842909Y8886436D01*
X-10717203Y8831517D01*
X-10583224Y8802059D01*
X-10446075Y8799187D01*
X-10310980Y8823007D01*
X-10183085Y8872615D01*
X-10067261Y8946119D01*
X-9967920Y9040720D01*
X-9888845Y9152816D01*
X-9833049Y9278135D01*
X-9802657Y9411905D01*
X-9801538Y9492062D01*
X-9793100Y9500500D01*
X-2561618Y9500500D01*
X-2581089Y9490147D01*
X-2622047Y9468916D01*
X-2624100Y9467277D01*
X-2626419Y9466044D01*
X-2662182Y9436877D01*
X-2698234Y9408097D01*
X-2701888Y9404494D01*
X-2701965Y9404431D01*
X-2702024Y9404360D01*
X-2703200Y9403200D01*
X-3006805Y9099595D01*
X-3063704Y9099992D01*
X-3198454Y9074287D01*
X-3325644Y9022899D01*
X-3440430Y8947785D01*
X-3538441Y8851806D01*
X-3615943Y8738617D01*
X-3669983Y8612531D01*
X-3698505Y8478350D01*
X-3700420Y8341184D01*
X-3675656Y8206259D01*
X-3625157Y8078713D01*
X-3550846Y7963405D01*
X-3455554Y7864726D01*
X-3342909Y7786436D01*
X-3217203Y7731517D01*
X-3083224Y7702059D01*
X-2946075Y7699187D01*
X-2810980Y7723007D01*
X-2683085Y7772615D01*
X-2567261Y7846119D01*
X-2467920Y7940720D01*
X-2388845Y8052816D01*
X-2333049Y8178135D01*
X-2302657Y8311905D01*
X-2301538Y8392062D01*
X-2263459Y8430141D01*
X-2262944Y8428477D01*
X-2200789Y8334154D01*
X-2114818Y8260881D01*
X-2099500Y8253976D01*
X-2099500Y7747173D01*
X-2154667Y7710312D01*
X-2210312Y7654666D01*
X-2254032Y7589234D01*
X-2284148Y7516530D01*
X-2299500Y7439347D01*
X-2299500Y7200375D01*
X-2199625Y7100500D01*
X-1617169Y7100500D01*
X-1564818Y7055881D01*
X-1461837Y7009460D01*
X-1350000Y6993567D01*
X-1150000Y6993567D01*
X-1086381Y6998640D01*
X-978477Y7032056D01*
X-884154Y7094211D01*
X-878794Y7100500D01*
X-300375Y7100500D01*
X-200500Y7200375D01*
X-200500Y7439347D01*
X-215852Y7516530D01*
X-245968Y7589234D01*
X-289688Y7654666D01*
X-345333Y7710312D01*
X-400500Y7747173D01*
X-400500Y8255492D01*
X-334154Y8299211D01*
X-260881Y8385182D01*
X-232308Y8448569D01*
X-142909Y8386436D01*
X-17203Y8331517D01*
X116776Y8302059D01*
X253925Y8299187D01*
X325442Y8311797D01*
X385182Y8260881D01*
X400500Y8253976D01*
X400500Y7747173D01*
X345333Y7710312D01*
X289688Y7654666D01*
X245968Y7589234D01*
X215852Y7516530D01*
X200500Y7439347D01*
X200500Y7200375D01*
X300375Y7100500D01*
X882831Y7100500D01*
X935182Y7055881D01*
X1038163Y7009460D01*
X1150000Y6993567D01*
X1350000Y6993567D01*
X1413619Y6998640D01*
X1521523Y7032056D01*
X1615846Y7094211D01*
X1621206Y7100500D01*
X2199625Y7100500D01*
X2299500Y7200375D01*
X2299500Y7439347D01*
X2284148Y7516530D01*
X2254032Y7589234D01*
X2210312Y7654666D01*
X2154667Y7710312D01*
X2099500Y7747173D01*
X2099500Y8255492D01*
X2165846Y8299211D01*
X2239119Y8385182D01*
X2285540Y8488163D01*
X2301433Y8600000D01*
X2301433Y9500000D01*
X2301393Y9500500D01*
X2793100Y9500500D01*
X3500500Y8793100D01*
X3500500Y6500000D01*
X3505001Y6454096D01*
X3509024Y6408116D01*
X3509757Y6405594D01*
X3510013Y6402980D01*
X3523349Y6358807D01*
X3536221Y6314502D01*
X3537430Y6312171D01*
X3538189Y6309655D01*
X3559853Y6268911D01*
X3581084Y6227953D01*
X3582723Y6225900D01*
X3583956Y6223581D01*
X3613123Y6187818D01*
X3641903Y6151766D01*
X3645506Y6148112D01*
X3645569Y6148035D01*
X3645640Y6147976D01*
X3646800Y6146800D01*
X4686800Y5106800D01*
X4722481Y5077491D01*
X4757799Y5047856D01*
X4760098Y5046592D01*
X4762130Y5044923D01*
X4802848Y5023090D01*
X4843226Y5000892D01*
X4845726Y5000099D01*
X4848044Y4998856D01*
X4892171Y4985366D01*
X4936148Y4971415D01*
X4938762Y4971122D01*
X4941270Y4970355D01*
X4987159Y4965694D01*
X5033026Y4960549D01*
X5038158Y4960513D01*
X5038256Y4960503D01*
X5038347Y4960512D01*
X5040000Y4960500D01*
X6314992Y4960500D01*
X6425853Y4748442D01*
X6505402Y4649502D01*
X-1746038Y4649502D01*
X-3100498Y6003962D01*
X-3100498Y6699625D01*
X-2299500Y6699625D01*
X-2299500Y6460653D01*
X-2284148Y6383470D01*
X-2254032Y6310766D01*
X-2210312Y6245334D01*
X-2154667Y6189688D01*
X-2089234Y6145968D01*
X-2016530Y6115853D01*
X-1939348Y6100500D01*
X-1500375Y6100500D01*
X-1400500Y6200375D01*
X-1400500Y6799500D01*
X-1099500Y6799500D01*
X-1099500Y6200375D01*
X-999625Y6100500D01*
X-560652Y6100500D01*
X-483470Y6115853D01*
X-410766Y6145968D01*
X-345333Y6189688D01*
X-289688Y6245334D01*
X-245968Y6310766D01*
X-215852Y6383470D01*
X-200500Y6460653D01*
X-200500Y6699625D01*
X200500Y6699625D01*
X200500Y6460653D01*
X215852Y6383470D01*
X245968Y6310766D01*
X289688Y6245334D01*
X345333Y6189688D01*
X410766Y6145968D01*
X483470Y6115853D01*
X560652Y6100500D01*
X999625Y6100500D01*
X1099500Y6200375D01*
X1099500Y6799500D01*
X1400500Y6799500D01*
X1400500Y6200375D01*
X1500375Y6100500D01*
X1939348Y6100500D01*
X2016530Y6115853D01*
X2089234Y6145968D01*
X2154667Y6189688D01*
X2210312Y6245334D01*
X2254032Y6310766D01*
X2284148Y6383470D01*
X2299500Y6460653D01*
X2299500Y6699625D01*
X2199625Y6799500D01*
X1400500Y6799500D01*
X1099500Y6799500D01*
X300375Y6799500D01*
X200500Y6699625D01*
X-200500Y6699625D01*
X-300375Y6799500D01*
X-1099500Y6799500D01*
X-1400500Y6799500D01*
X-2199625Y6799500D01*
X-2299500Y6699625D01*
X-3100498Y6699625D01*
X-3100498Y6915686D01*
X-3105000Y6961598D01*
X-3109022Y7007569D01*
X-3109755Y7010090D01*
X-3110011Y7012706D01*
X-3123351Y7056891D01*
X-3136219Y7101184D01*
X-3137428Y7103515D01*
X-3138187Y7106031D01*
X-3159851Y7146775D01*
X-3181082Y7187733D01*
X-3182721Y7189786D01*
X-3183954Y7192105D01*
X-3213121Y7227868D01*
X-3241901Y7263920D01*
X-3245504Y7267574D01*
X-3245567Y7267651D01*
X-3245638Y7267710D01*
X-3246798Y7268886D01*
X-3856114Y7878202D01*
X-3891795Y7907511D01*
X-3927113Y7937146D01*
X-3929412Y7938410D01*
X-3931444Y7940079D01*
X-3972143Y7961901D01*
X-4012540Y7984110D01*
X-4015042Y7984904D01*
X-4017359Y7986146D01*
X-4061471Y7999632D01*
X-4105462Y8013587D01*
X-4108076Y8013880D01*
X-4110584Y8014647D01*
X-4156473Y8019308D01*
X-4202340Y8024453D01*
X-4207472Y8024489D01*
X-4207570Y8024499D01*
X-4207661Y8024490D01*
X-4209314Y8024502D01*
X-5290686Y8024502D01*
X-5336598Y8020000D01*
X-5382569Y8015978D01*
X-5385090Y8015245D01*
X-5387706Y8014989D01*
X-5431891Y8001649D01*
X-5476184Y7988781D01*
X-5478516Y7987572D01*
X-5481031Y7986813D01*
X-5521735Y7965170D01*
X-5562733Y7943919D01*
X-5564790Y7942277D01*
X-5567105Y7941046D01*
X-5602836Y7911905D01*
X-5638920Y7883099D01*
X-5642574Y7879496D01*
X-5642651Y7879433D01*
X-5642710Y7879362D01*
X-5643886Y7878202D01*
X-5772588Y7749500D01*
X-6510175Y7749500D01*
X-6551964Y7791582D01*
X-6665691Y7868292D01*
X-6792151Y7921451D01*
X-6926529Y7949035D01*
X-7063704Y7949992D01*
X-7198454Y7924287D01*
X-7325644Y7872899D01*
X-7440430Y7797785D01*
X-7538441Y7701806D01*
X-7615943Y7588617D01*
X-7669983Y7462531D01*
X-7698505Y7328350D01*
X-7700420Y7191184D01*
X-7675656Y7056259D01*
X-7625157Y6928713D01*
X-7550846Y6813405D01*
X-7499500Y6760234D01*
X-7499500Y6750000D01*
X-7494999Y6704096D01*
X-7490976Y6658116D01*
X-7490243Y6655594D01*
X-7489987Y6652980D01*
X-7476651Y6608807D01*
X-7463779Y6564502D01*
X-7462570Y6562171D01*
X-7461811Y6559655D01*
X-7440147Y6518911D01*
X-7418916Y6477953D01*
X-7417277Y6475900D01*
X-7416044Y6473581D01*
X-7386877Y6437818D01*
X-7358097Y6401766D01*
X-7354494Y6398112D01*
X-7354431Y6398035D01*
X-7354360Y6397976D01*
X-7353200Y6396800D01*
X-6353200Y5396800D01*
X-6317541Y5367509D01*
X-6282201Y5337856D01*
X-6279900Y5336591D01*
X-6277869Y5334923D01*
X-6237192Y5313112D01*
X-6196774Y5290892D01*
X-6194272Y5290098D01*
X-6191955Y5288856D01*
X-6147814Y5275361D01*
X-6103852Y5261415D01*
X-6101242Y5261122D01*
X-6098729Y5260354D01*
X-6052756Y5255684D01*
X-6006974Y5250549D01*
X-6001851Y5250513D01*
X-6001743Y5250502D01*
X-6001642Y5250512D01*
X-6000000Y5250500D01*
X-5456900Y5250500D01*
X-2699693Y2493293D01*
X-2700420Y2441184D01*
X-2675656Y2306259D01*
X-2625157Y2178713D01*
X-2550846Y2063405D01*
X-2455554Y1964726D01*
X-2342909Y1886436D01*
X-2217203Y1831517D01*
X-2083224Y1802059D01*
X-1946075Y1799187D01*
X-1810980Y1823007D01*
X-1683085Y1872615D01*
X-1567261Y1946119D01*
X-1467920Y2040720D01*
X-1388845Y2152816D01*
X-1333049Y2278135D01*
X-1302657Y2411905D01*
X-1300470Y2568590D01*
X-1327114Y2703156D01*
X-1379389Y2829985D01*
X-1393018Y2850498D01*
X10127414Y2850498D01*
X12061112Y916800D01*
X12096767Y887513D01*
X12132111Y857856D01*
X12134414Y856590D01*
X12136442Y854924D01*
X12177121Y833112D01*
X12217538Y810892D01*
X12220038Y810099D01*
X12222356Y808856D01*
X12266483Y795366D01*
X12310460Y781415D01*
X12313074Y781122D01*
X12315582Y780355D01*
X12319939Y779912D01*
X12275894Y726671D01*
X12155267Y503577D01*
X12080270Y261301D01*
X12053760Y9072D01*
X12076746Y-243502D01*
X12148353Y-486801D01*
X12265853Y-711558D01*
X12424771Y-909213D01*
X12619053Y-1072235D01*
X12743227Y-1140500D01*
X12420652Y-1140500D01*
X12343470Y-1155853D01*
X12270766Y-1185968D01*
X12205333Y-1229688D01*
X12149688Y-1285334D01*
X12105968Y-1350766D01*
X12075852Y-1423470D01*
X12060500Y-1500653D01*
X12060500Y-2039625D01*
X12160375Y-2139500D01*
X13059500Y-2139500D01*
X13059500Y-2119500D01*
X13860500Y-2119500D01*
X13860500Y-2139500D01*
X15599500Y-2139500D01*
X15599500Y-2119500D01*
X16400500Y-2119500D01*
X16400500Y-2139500D01*
X17299625Y-2139500D01*
X17399500Y-2039625D01*
X17399500Y-1500653D01*
X17384148Y-1423470D01*
X17354032Y-1350766D01*
X17310312Y-1285334D01*
X17254667Y-1229688D01*
X17189234Y-1185968D01*
X17116530Y-1155853D01*
X17039348Y-1140500D01*
X16814823Y-1140500D01*
X16865787Y-1108157D01*
X17064541Y-918887D01*
X17222746Y-694617D01*
X17334378Y-443888D01*
X17395183Y-176253D01*
X17399560Y137228D01*
X17346252Y406457D01*
X17241664Y660205D01*
X17089783Y888805D01*
X16896392Y1083551D01*
X16668857Y1237025D01*
X16593068Y1268884D01*
X16634056Y1284782D01*
X16865787Y1431843D01*
X17064541Y1621113D01*
X17222746Y1845383D01*
X17334378Y2096112D01*
X17395183Y2363747D01*
X17399560Y2677228D01*
X17346252Y2946457D01*
X17241664Y3200205D01*
X17089783Y3428805D01*
X16896392Y3623551D01*
X16668857Y3777025D01*
X16415846Y3883381D01*
X16146995Y3938568D01*
X15872546Y3940484D01*
X15602951Y3889056D01*
X15348480Y3786243D01*
X15118825Y3635961D01*
X14922733Y3443934D01*
X14767674Y3217477D01*
X14724557Y3116876D01*
X14654147Y3251558D01*
X14495229Y3449213D01*
X14300947Y3612235D01*
X14078700Y3734416D01*
X13836953Y3811103D01*
X13584916Y3839373D01*
X13566772Y3839500D01*
X13353228Y3839500D01*
X13100820Y3814751D01*
X12858027Y3741448D01*
X12634096Y3622381D01*
X12437556Y3462087D01*
X12275894Y3266671D01*
X12155267Y3043577D01*
X12154005Y3039500D01*
X11916900Y3039500D01*
X10853200Y4103200D01*
X10817519Y4132509D01*
X10786464Y4158567D01*
X11160000Y4158567D01*
X11223619Y4163640D01*
X11331523Y4197056D01*
X11425846Y4259211D01*
X11499119Y4345182D01*
X11545540Y4448163D01*
X11561433Y4560000D01*
X11561433Y6360000D01*
X11556360Y6423619D01*
X11522944Y6531523D01*
X11460789Y6625846D01*
X11374818Y6699119D01*
X11271837Y6745540D01*
X11160000Y6761433D01*
X10820294Y6761433D01*
X11025787Y6891843D01*
X11224541Y7081113D01*
X11382746Y7305383D01*
X11494378Y7556112D01*
X11555183Y7823747D01*
X11557083Y7959866D01*
X13125780Y7959866D01*
X13188315Y7402358D01*
X13357945Y6867614D01*
X13628211Y6376002D01*
X13988818Y5946248D01*
X14426030Y5594721D01*
X14923193Y5334810D01*
X15461372Y5176415D01*
X16020068Y5125570D01*
X16577998Y5184211D01*
X17113914Y5350104D01*
X17607400Y5616931D01*
X18039661Y5974529D01*
X18394232Y6409276D01*
X18657608Y6904613D01*
X18819756Y7441673D01*
X18874500Y8000000D01*
X18873379Y8080261D01*
X18803067Y8636841D01*
X18625986Y9169164D01*
X18348883Y9656955D01*
X17982311Y10081632D01*
X17540234Y10427021D01*
X17039490Y10679965D01*
X16499152Y10830830D01*
X15939801Y10873870D01*
X15382743Y10807444D01*
X14849197Y10634085D01*
X14359484Y10360393D01*
X13932258Y9996795D01*
X13583791Y9557140D01*
X13327357Y9058174D01*
X13172724Y8518902D01*
X13125780Y7959866D01*
X11557083Y7959866D01*
X11559560Y8137228D01*
X11506252Y8406457D01*
X11401664Y8660205D01*
X11249783Y8888805D01*
X11056392Y9083551D01*
X10828857Y9237025D01*
X10753068Y9268884D01*
X10794056Y9284782D01*
X11025787Y9431843D01*
X11224541Y9621113D01*
X11382746Y9845383D01*
X11494378Y10096112D01*
X11555183Y10363747D01*
X11559560Y10677228D01*
X11506252Y10946457D01*
X11401664Y11200205D01*
X11251979Y11425500D01*
X15976797Y11425500D01*
X16664907Y11358030D01*
X17304487Y11164930D01*
X17894385Y10851276D01*
X18412121Y10429020D01*
X18837983Y9914241D01*
X19155743Y9326555D01*
X19353305Y8688334D01*
X19425492Y8001529D01*
X19425500Y7999205D01*
X19425500Y-7976797D01*
X19358030Y-8664907D01*
X19164930Y-9304487D01*
X18851276Y-9894385D01*
X18429022Y-10412118D01*
X17914241Y-10837984D01*
X17326557Y-11155743D01*
X16688335Y-11353305D01*
X16001529Y-11425492D01*
X15999204Y-11425500D01*
X-15976797Y-11425500D01*
X-16664907Y-11358030D01*
X-17304487Y-11164930D01*
X-17894385Y-10851276D01*
X-18412118Y-10429022D01*
X-18837984Y-9914241D01*
X-19155743Y-9326557D01*
X-19353305Y-8688335D01*
X-19421434Y-8040134D01*
X-18874220Y-8040134D01*
X-18811685Y-8597642D01*
X-18642055Y-9132386D01*
X-18371789Y-9623998D01*
X-18011182Y-10053752D01*
X-17573970Y-10405279D01*
X-17076807Y-10665190D01*
X-16538628Y-10823585D01*
X-15979932Y-10874430D01*
X-15422002Y-10815789D01*
X-14886086Y-10649896D01*
X-14392600Y-10383069D01*
X-13960339Y-10025471D01*
X-13605768Y-9590724D01*
X-13342392Y-9095387D01*
X-13180244Y-8558327D01*
X-13129436Y-8040134D01*
X13125780Y-8040134D01*
X13188315Y-8597642D01*
X13357945Y-9132386D01*
X13628211Y-9623998D01*
X13988818Y-10053752D01*
X14426030Y-10405279D01*
X14923193Y-10665190D01*
X15461372Y-10823585D01*
X16020068Y-10874430D01*
X16577998Y-10815789D01*
X17113914Y-10649896D01*
X17607400Y-10383069D01*
X18039661Y-10025471D01*
X18394232Y-9590724D01*
X18657608Y-9095387D01*
X18819756Y-8558327D01*
X18874500Y-8000000D01*
X18873379Y-7919739D01*
X18803067Y-7363159D01*
X18625986Y-6830836D01*
X18348883Y-6343045D01*
X17982311Y-5918368D01*
X17540234Y-5572979D01*
X17039490Y-5320035D01*
X16499152Y-5169170D01*
X15939801Y-5126130D01*
X15382743Y-5192556D01*
X14849197Y-5365915D01*
X14359484Y-5639607D01*
X13932258Y-6003205D01*
X13583791Y-6442860D01*
X13327357Y-6941826D01*
X13172724Y-7481098D01*
X13125780Y-8040134D01*
X-13129436Y-8040134D01*
X-13125500Y-8000000D01*
X-13126621Y-7919739D01*
X-13196933Y-7363159D01*
X-13374014Y-6830836D01*
X-13651117Y-6343045D01*
X-14017689Y-5918368D01*
X-14459766Y-5572979D01*
X-14960510Y-5320035D01*
X-15500848Y-5169170D01*
X-16060199Y-5126130D01*
X-16617257Y-5192556D01*
X-17150803Y-5365915D01*
X-17640516Y-5639607D01*
X-18067742Y-6003205D01*
X-18416209Y-6442860D01*
X-18672643Y-6941826D01*
X-18827276Y-7481098D01*
X-18874220Y-8040134D01*
X-19421434Y-8040134D01*
X-19425492Y-8001529D01*
X-19425500Y-7999204D01*
X-19425500Y-3114479D01*
X-19424667Y-3115312D01*
X-19359234Y-3159032D01*
X-19286530Y-3189147D01*
X-19209348Y-3204500D01*
X-18770375Y-3204500D01*
X-18670500Y-3104625D01*
X-18670500Y-2305500D01*
X-17869500Y-2305500D01*
X-17869500Y-3104625D01*
X-17769625Y-3204500D01*
X-17618957Y-3204500D01*
X-17621011Y-3351653D01*
X-17580317Y-3573378D01*
X-17497331Y-3782976D01*
X-17375215Y-3972464D01*
X-17218619Y-4134624D01*
X-17033508Y-4263279D01*
X-16826934Y-4353529D01*
X-16606764Y-4401937D01*
X-16381385Y-4406658D01*
X-16159381Y-4367512D01*
X-15949208Y-4285992D01*
X-15758873Y-4165201D01*
X-15595624Y-4009741D01*
X-15465679Y-3825533D01*
X-15373989Y-3619594D01*
X-15324046Y-3399768D01*
X-15320451Y-3142286D01*
X-15340629Y-3040375D01*
X12060500Y-3040375D01*
X12060500Y-3579347D01*
X12075852Y-3656530D01*
X12105968Y-3729234D01*
X12149688Y-3794666D01*
X12205333Y-3850312D01*
X12270766Y-3894032D01*
X12343470Y-3924147D01*
X12420652Y-3939500D01*
X12959625Y-3939500D01*
X13059500Y-3839625D01*
X13059500Y-2940500D01*
X13860500Y-2940500D01*
X13860500Y-3839625D01*
X13960375Y-3939500D01*
X14499348Y-3939500D01*
X14576530Y-3924147D01*
X14649234Y-3894032D01*
X14714667Y-3850312D01*
X14730000Y-3834979D01*
X14745333Y-3850312D01*
X14810766Y-3894032D01*
X14883470Y-3924147D01*
X14960652Y-3939500D01*
X15499625Y-3939500D01*
X15599500Y-3839625D01*
X15599500Y-2940500D01*
X16400500Y-2940500D01*
X16400500Y-3839625D01*
X16500375Y-3939500D01*
X17039348Y-3939500D01*
X17116530Y-3924147D01*
X17189234Y-3894032D01*
X17254667Y-3850312D01*
X17310312Y-3794666D01*
X17354032Y-3729234D01*
X17384148Y-3656530D01*
X17399500Y-3579347D01*
X17399500Y-3040375D01*
X17299625Y-2940500D01*
X16400500Y-2940500D01*
X15599500Y-2940500D01*
X13860500Y-2940500D01*
X13059500Y-2940500D01*
X12160375Y-2940500D01*
X12060500Y-3040375D01*
X-15340629Y-3040375D01*
X-15364237Y-2921150D01*
X-15450141Y-2712731D01*
X-15574891Y-2524967D01*
X-15733736Y-2365009D01*
X-15920625Y-2238951D01*
X-16128439Y-2151594D01*
X-16349263Y-2106266D01*
X-16574686Y-2104692D01*
X-16796122Y-2146933D01*
X-17005136Y-2231380D01*
X-17118403Y-2305500D01*
X-17869500Y-2305500D01*
X-18670500Y-2305500D01*
X-18690500Y-2305500D01*
X-18690500Y-1504500D01*
X-18670500Y-1504500D01*
X-18670500Y-1484500D01*
X-17869500Y-1484500D01*
X-17869500Y-1504500D01*
X-17070375Y-1504500D01*
X-16970500Y-1404625D01*
X-16970500Y-1032062D01*
X-16891389Y-1231873D01*
X-16753338Y-1446087D01*
X-16576307Y-1629408D01*
X-16367041Y-1774851D01*
X-16133511Y-1876878D01*
X-15884610Y-1931602D01*
X-15629821Y-1936940D01*
X-15378848Y-1892686D01*
X-15141250Y-1800528D01*
X-14926077Y-1663975D01*
X-14741525Y-1488229D01*
X-14594624Y-1279983D01*
X-14490969Y-1047171D01*
X-14434509Y-798659D01*
X-14430444Y-507577D01*
X-14479944Y-257586D01*
X-14577058Y-21970D01*
X-14718087Y190296D01*
X-14897659Y371127D01*
X-15108936Y513635D01*
X-15343868Y612391D01*
X-15451548Y634495D01*
X-15378848Y647314D01*
X-15141250Y739472D01*
X-14926077Y876025D01*
X-14741525Y1051771D01*
X-14594624Y1260017D01*
X-14490969Y1492829D01*
X-14434509Y1741341D01*
X-14430444Y2032423D01*
X-14479944Y2282414D01*
X-14577058Y2518030D01*
X-14718087Y2730296D01*
X-14897659Y2911127D01*
X-15108936Y3053635D01*
X-15343868Y3152391D01*
X-15593508Y3203635D01*
X-15848347Y3205414D01*
X-16098678Y3157661D01*
X-16334966Y3062194D01*
X-16548212Y2922650D01*
X-16730292Y2744344D01*
X-16874271Y2534068D01*
X-16974665Y2299831D01*
X-17027650Y2050555D01*
X-17031208Y1795734D01*
X-16985204Y1545076D01*
X-16891389Y1308127D01*
X-16753338Y1093913D01*
X-16576307Y910592D01*
X-16367041Y765149D01*
X-16133511Y663122D01*
X-16006616Y635223D01*
X-16098678Y617661D01*
X-16334966Y522194D01*
X-16548212Y382650D01*
X-16730292Y204344D01*
X-16874271Y-5932D01*
X-16974665Y-240169D01*
X-17027650Y-489445D01*
X-17031208Y-744266D01*
X-17018887Y-811397D01*
X-17059688Y-750334D01*
X-17115333Y-694688D01*
X-17180766Y-650968D01*
X-17253470Y-620853D01*
X-17330652Y-605500D01*
X-17769625Y-605500D01*
X-17869498Y-705373D01*
X-17869498Y-605500D01*
X-17874540Y-605500D01*
X-17681250Y-530528D01*
X-17466077Y-393975D01*
X-17281525Y-218229D01*
X-17134624Y-9983D01*
X-17030969Y222829D01*
X-16974509Y471341D01*
X-16970444Y762423D01*
X-17019944Y1012414D01*
X-17117058Y1248030D01*
X-17258087Y1460296D01*
X-17437659Y1641127D01*
X-17648936Y1783635D01*
X-17883868Y1882391D01*
X-18133508Y1933635D01*
X-18388347Y1935414D01*
X-18638678Y1887661D01*
X-18874966Y1792194D01*
X-19088212Y1652650D01*
X-19270292Y1474344D01*
X-19414271Y1264068D01*
X-19425500Y1237869D01*
X-19425500Y7959866D01*
X-18874220Y7959866D01*
X-18811685Y7402358D01*
X-18642055Y6867614D01*
X-18371789Y6376002D01*
X-18011182Y5946248D01*
X-17573970Y5594721D01*
X-17076807Y5334810D01*
X-16538628Y5176415D01*
X-15979932Y5125570D01*
X-15422002Y5184211D01*
X-14886086Y5350104D01*
X-14392600Y5616931D01*
X-13960339Y5974529D01*
X-13605768Y6409276D01*
X-13342392Y6904613D01*
X-13180244Y7441673D01*
X-13131267Y7941184D01*
X-9200420Y7941184D01*
X-9175656Y7806259D01*
X-9125157Y7678713D01*
X-9050846Y7563405D01*
X-8999500Y7510234D01*
X-8999500Y3250000D01*
X-8994999Y3204096D01*
X-8990976Y3158116D01*
X-8990243Y3155594D01*
X-8989987Y3152980D01*
X-8976651Y3108807D01*
X-8963779Y3064502D01*
X-8962570Y3062171D01*
X-8961811Y3059655D01*
X-8940147Y3018911D01*
X-8918916Y2977953D01*
X-8917277Y2975900D01*
X-8916044Y2973581D01*
X-8886906Y2937854D01*
X-8858097Y2901766D01*
X-8854494Y2898112D01*
X-8854431Y2898035D01*
X-8854360Y2897976D01*
X-8853200Y2896800D01*
X-8449693Y2493293D01*
X-8450420Y2441184D01*
X-8425656Y2306259D01*
X-8375157Y2178713D01*
X-8300846Y2063405D01*
X-8205554Y1964726D01*
X-8092909Y1886436D01*
X-7967203Y1831517D01*
X-7833224Y1802059D01*
X-7756860Y1800460D01*
X-6603200Y646800D01*
X-6567545Y617513D01*
X-6532201Y587856D01*
X-6529898Y586590D01*
X-6527870Y584924D01*
X-6487191Y563112D01*
X-6446774Y540892D01*
X-6444274Y540099D01*
X-6441956Y538856D01*
X-6397829Y525366D01*
X-6353852Y511415D01*
X-6351238Y511122D01*
X-6348730Y510355D01*
X-6302841Y505694D01*
X-6256974Y500549D01*
X-6251842Y500513D01*
X-6251744Y500503D01*
X-6251653Y500512D01*
X-6250000Y500500D01*
X-5490100Y500500D01*
X-5455554Y464726D01*
X-5342909Y386436D01*
X-5217203Y331517D01*
X-5083224Y302059D01*
X-4946075Y299187D01*
X-4810980Y323007D01*
X-4683085Y372615D01*
X-4567261Y446119D01*
X-4467920Y540720D01*
X-4388845Y652816D01*
X-4333049Y778135D01*
X-4302657Y911905D01*
X-4300470Y1068590D01*
X-4327114Y1203156D01*
X-4379389Y1329985D01*
X-4455303Y1444244D01*
X-4518596Y1507981D01*
X-689500Y1507981D01*
X-689500Y492019D01*
X-667608Y268747D01*
X-602766Y53979D01*
X-497443Y-144105D01*
X-355652Y-317958D01*
X-182792Y-460960D01*
X14551Y-567663D01*
X228861Y-634003D01*
X451975Y-657453D01*
X675395Y-637120D01*
X890610Y-573779D01*
X1089424Y-469842D01*
X1264263Y-329267D01*
X1408468Y-157411D01*
X1516546Y39183D01*
X1584381Y253025D01*
X1609388Y475969D01*
X1609500Y492019D01*
X1609500Y849500D01*
X1850500Y849500D01*
X1850500Y349500D01*
X1901948Y128135D01*
X1995594Y-78939D01*
X2127839Y-263765D01*
X2293600Y-419240D01*
X2486508Y-539389D01*
X2673079Y-602031D01*
X2849500Y-538779D01*
X2849500Y849500D01*
X3150500Y849500D01*
X3150500Y-538779D01*
X3326921Y-602031D01*
X3513492Y-539389D01*
X3706400Y-419240D01*
X3872161Y-263765D01*
X4004406Y-78939D01*
X4098052Y128135D01*
X4149500Y349500D01*
X4149500Y849500D01*
X3150500Y849500D01*
X2849500Y849500D01*
X1850500Y849500D01*
X1609500Y849500D01*
X1609500Y1507981D01*
X1595526Y1650500D01*
X1850500Y1650500D01*
X1850500Y1150500D01*
X2849500Y1150500D01*
X2849500Y2538779D01*
X3150500Y2538779D01*
X3150500Y1150500D01*
X4149500Y1150500D01*
X4149500Y1507981D01*
X4390500Y1507981D01*
X4390500Y492019D01*
X4412392Y268747D01*
X4477234Y53979D01*
X4582557Y-144105D01*
X4724348Y-317958D01*
X4897208Y-460960D01*
X5094551Y-567663D01*
X5308861Y-634003D01*
X5531975Y-657453D01*
X5755395Y-637120D01*
X5970610Y-573779D01*
X6169424Y-469842D01*
X6344263Y-329267D01*
X6488468Y-157411D01*
X6596546Y39183D01*
X6664381Y253025D01*
X6689388Y475969D01*
X6689500Y492019D01*
X6689500Y1507981D01*
X6667608Y1731253D01*
X6602766Y1946021D01*
X6497443Y2144105D01*
X6355652Y2317958D01*
X6182792Y2460960D01*
X5985449Y2567663D01*
X5771139Y2634003D01*
X5548025Y2657453D01*
X5324605Y2637120D01*
X5109390Y2573779D01*
X4910576Y2469842D01*
X4735737Y2329267D01*
X4591532Y2157411D01*
X4483454Y1960817D01*
X4415619Y1746975D01*
X4390612Y1524031D01*
X4390500Y1507981D01*
X4149500Y1507981D01*
X4149500Y1650500D01*
X4098052Y1871865D01*
X4004406Y2078939D01*
X3872161Y2263765D01*
X3706400Y2419240D01*
X3513492Y2539389D01*
X3326921Y2602031D01*
X3150500Y2538779D01*
X2849500Y2538779D01*
X2673079Y2602031D01*
X2486508Y2539389D01*
X2293600Y2419240D01*
X2127839Y2263765D01*
X1995594Y2078939D01*
X1901948Y1871865D01*
X1850500Y1650500D01*
X1595526Y1650500D01*
X1587608Y1731253D01*
X1522766Y1946021D01*
X1417443Y2144105D01*
X1275652Y2317958D01*
X1102792Y2460960D01*
X905449Y2567663D01*
X691139Y2634003D01*
X468025Y2657453D01*
X244605Y2637120D01*
X29390Y2573779D01*
X-169424Y2469842D01*
X-344263Y2329267D01*
X-488468Y2157411D01*
X-596546Y1960817D01*
X-664381Y1746975D01*
X-689388Y1524031D01*
X-689500Y1507981D01*
X-4518596Y1507981D01*
X-4551964Y1541582D01*
X-4665691Y1618292D01*
X-4792151Y1671451D01*
X-4926529Y1699035D01*
X-5063704Y1699992D01*
X-5198454Y1674287D01*
X-5325644Y1622899D01*
X-5440430Y1547785D01*
X-5489737Y1499500D01*
X-6043100Y1499500D01*
X-7051320Y2507720D01*
X-7050470Y2568590D01*
X-7077114Y2703156D01*
X-7129389Y2829985D01*
X-7205303Y2944244D01*
X-7301964Y3041582D01*
X-7415691Y3118292D01*
X-7542151Y3171451D01*
X-7676529Y3199035D01*
X-7743099Y3199499D01*
X-8000500Y3456900D01*
X-8000500Y7509695D01*
X-7967920Y7540720D01*
X-7888845Y7652816D01*
X-7833049Y7778135D01*
X-7802657Y7911905D01*
X-7800470Y8068590D01*
X-7827114Y8203156D01*
X-7879389Y8329985D01*
X-7955303Y8444244D01*
X-8051964Y8541582D01*
X-8165691Y8618292D01*
X-8292151Y8671451D01*
X-8426529Y8699035D01*
X-8563704Y8699992D01*
X-8698454Y8674287D01*
X-8825644Y8622899D01*
X-8940430Y8547785D01*
X-9038441Y8451806D01*
X-9115943Y8338617D01*
X-9169983Y8212531D01*
X-9198505Y8078350D01*
X-9200420Y7941184D01*
X-13131267Y7941184D01*
X-13125500Y8000000D01*
X-13126621Y8080261D01*
X-13196933Y8636841D01*
X-13374014Y9169164D01*
X-13651117Y9656955D01*
X-14017689Y10081632D01*
X-14459766Y10427021D01*
X-14960510Y10679965D01*
X-15500848Y10830830D01*
X-16060199Y10873870D01*
X-16617257Y10807444D01*
X-17150803Y10634085D01*
X-17640516Y10360393D01*
X-18067742Y9996795D01*
X-18416209Y9557140D01*
X-18672643Y9058174D01*
X-18827276Y8518902D01*
X-18874220Y7959866D01*
X-19425500Y7959866D01*
X-19425500Y7976797D01*
X-19358030Y8664907D01*
X-19164930Y9304487D01*
X-18851276Y9894385D01*
X-18429020Y10412121D01*
X-17914241Y10837983D01*
X-17326555Y11155743D01*
X-16688334Y11353305D01*
X-16001529Y11425492D01*
X-15999205Y11425500D01*
X6576253Y11425500D01*
X6441365Y11261252D01*
X6441365Y11261252D01*
G37*
X6441365Y11261252D02*
X6321381Y11036962D01*
X6268679Y10890566D01*
X6329853Y10690500D01*
X7469500Y10690500D01*
X7469500Y10710500D01*
X7770500Y10710500D01*
X7770500Y10690500D01*
X7790500Y10690500D01*
X7790500Y10389500D01*
X7770500Y10389500D01*
X7770500Y10369500D01*
X7469500Y10369500D01*
X7469500Y10389500D01*
X6329853Y10389500D01*
X6268679Y10189434D01*
X6321381Y10043038D01*
X6441365Y9818748D01*
X6602800Y9622175D01*
X6799483Y9460874D01*
X7023855Y9341043D01*
X7251724Y9272005D01*
X7018027Y9201448D01*
X6794096Y9082381D01*
X6597556Y8922087D01*
X6435894Y8726671D01*
X6315267Y8503577D01*
X6240270Y8261301D01*
X6213760Y8009072D01*
X6236746Y7756498D01*
X6308353Y7513199D01*
X6425853Y7288442D01*
X6584771Y7090787D01*
X6779053Y6927765D01*
X7001300Y6805584D01*
X7242259Y6729147D01*
X7018027Y6661448D01*
X6794096Y6542381D01*
X6597556Y6382087D01*
X6435894Y6186671D01*
X6315267Y5963577D01*
X6314005Y5959500D01*
X5246900Y5959500D01*
X4499500Y6706900D01*
X4499500Y9000000D01*
X4494998Y9045912D01*
X4490976Y9091883D01*
X4490243Y9094404D01*
X4489987Y9097020D01*
X4476647Y9141205D01*
X4463779Y9185498D01*
X4462570Y9187830D01*
X4461811Y9190345D01*
X4440168Y9231049D01*
X4418917Y9272047D01*
X4417275Y9274104D01*
X4416044Y9276419D01*
X4386899Y9312154D01*
X4358097Y9348234D01*
X4354494Y9351888D01*
X4354431Y9351965D01*
X4354360Y9352024D01*
X4353200Y9353200D01*
X3353200Y10353200D01*
X3317519Y10382509D01*
X3282201Y10412144D01*
X3279902Y10413408D01*
X3277870Y10415077D01*
X3237171Y10436899D01*
X3196774Y10459108D01*
X3194272Y10459902D01*
X3191955Y10461144D01*
X3147843Y10474630D01*
X3103852Y10488585D01*
X3101238Y10488878D01*
X3098730Y10489645D01*
X3052841Y10494306D01*
X3006974Y10499451D01*
X3001842Y10499487D01*
X3001744Y10499497D01*
X3001653Y10499488D01*
X3000000Y10499500D01*
X489825Y10499500D01*
X448036Y10541582D01*
X334309Y10618292D01*
X207849Y10671451D01*
X73471Y10699035D01*
X-63704Y10699992D01*
X-198454Y10674287D01*
X-325644Y10622899D01*
X-440430Y10547785D01*
X-489737Y10499500D01*
X-10000000Y10499500D01*
X-10045912Y10494998D01*
X-10091883Y10490976D01*
X-10094404Y10490243D01*
X-10097020Y10489987D01*
X-10141205Y10476647D01*
X-10185498Y10463779D01*
X-10187829Y10462570D01*
X-10190345Y10461811D01*
X-10231089Y10440147D01*
X-10272047Y10418916D01*
X-10274100Y10417277D01*
X-10276419Y10416044D01*
X-10312182Y10386877D01*
X-10348234Y10358097D01*
X-10351888Y10354494D01*
X-10351965Y10354431D01*
X-10352024Y10354360D01*
X-10353200Y10353200D01*
X-10506805Y10199595D01*
X-10563704Y10199992D01*
X-10698454Y10174287D01*
X-10825644Y10122899D01*
X-10940430Y10047785D01*
X-11038441Y9951806D01*
X-11115943Y9838617D01*
X-11169983Y9712531D01*
X-11198505Y9578350D01*
X-11200420Y9441184D01*
X-11175656Y9306259D01*
X-11125157Y9178713D01*
X-11050846Y9063405D01*
X-10955554Y8964726D01*
X-10842909Y8886436D01*
X-10717203Y8831517D01*
X-10583224Y8802059D01*
X-10446075Y8799187D01*
X-10310980Y8823007D01*
X-10183085Y8872615D01*
X-10067261Y8946119D01*
X-9967920Y9040720D01*
X-9888845Y9152816D01*
X-9833049Y9278135D01*
X-9802657Y9411905D01*
X-9801538Y9492062D01*
X-9793100Y9500500D01*
X-2561618Y9500500D01*
X-2581089Y9490147D01*
X-2622047Y9468916D01*
X-2624100Y9467277D01*
X-2626419Y9466044D01*
X-2662182Y9436877D01*
X-2698234Y9408097D01*
X-2701888Y9404494D01*
X-2701965Y9404431D01*
X-2702024Y9404360D01*
X-2703200Y9403200D01*
X-3006805Y9099595D01*
X-3063704Y9099992D01*
X-3198454Y9074287D01*
X-3325644Y9022899D01*
X-3440430Y8947785D01*
X-3538441Y8851806D01*
X-3615943Y8738617D01*
X-3669983Y8612531D01*
X-3698505Y8478350D01*
X-3700420Y8341184D01*
X-3675656Y8206259D01*
X-3625157Y8078713D01*
X-3550846Y7963405D01*
X-3455554Y7864726D01*
X-3342909Y7786436D01*
X-3217203Y7731517D01*
X-3083224Y7702059D01*
X-2946075Y7699187D01*
X-2810980Y7723007D01*
X-2683085Y7772615D01*
X-2567261Y7846119D01*
X-2467920Y7940720D01*
X-2388845Y8052816D01*
X-2333049Y8178135D01*
X-2302657Y8311905D01*
X-2301538Y8392062D01*
X-2263459Y8430141D01*
X-2262944Y8428477D01*
X-2200789Y8334154D01*
X-2114818Y8260881D01*
X-2099500Y8253976D01*
X-2099500Y7747173D01*
X-2154667Y7710312D01*
X-2210312Y7654666D01*
X-2254032Y7589234D01*
X-2284148Y7516530D01*
X-2299500Y7439347D01*
X-2299500Y7200375D01*
X-2199625Y7100500D01*
X-1617169Y7100500D01*
X-1564818Y7055881D01*
X-1461837Y7009460D01*
X-1350000Y6993567D01*
X-1150000Y6993567D01*
X-1086381Y6998640D01*
X-978477Y7032056D01*
X-884154Y7094211D01*
X-878794Y7100500D01*
X-300375Y7100500D01*
X-200500Y7200375D01*
X-200500Y7439347D01*
X-215852Y7516530D01*
X-245968Y7589234D01*
X-289688Y7654666D01*
X-345333Y7710312D01*
X-400500Y7747173D01*
X-400500Y8255492D01*
X-334154Y8299211D01*
X-260881Y8385182D01*
X-232308Y8448569D01*
X-142909Y8386436D01*
X-17203Y8331517D01*
X116776Y8302059D01*
X253925Y8299187D01*
X325442Y8311797D01*
X385182Y8260881D01*
X400500Y8253976D01*
X400500Y7747173D01*
X345333Y7710312D01*
X289688Y7654666D01*
X245968Y7589234D01*
X215852Y7516530D01*
X200500Y7439347D01*
X200500Y7200375D01*
X300375Y7100500D01*
X882831Y7100500D01*
X935182Y7055881D01*
X1038163Y7009460D01*
X1150000Y6993567D01*
X1350000Y6993567D01*
X1413619Y6998640D01*
X1521523Y7032056D01*
X1615846Y7094211D01*
X1621206Y7100500D01*
X2199625Y7100500D01*
X2299500Y7200375D01*
X2299500Y7439347D01*
X2284148Y7516530D01*
X2254032Y7589234D01*
X2210312Y7654666D01*
X2154667Y7710312D01*
X2099500Y7747173D01*
X2099500Y8255492D01*
X2165846Y8299211D01*
X2239119Y8385182D01*
X2285540Y8488163D01*
X2301433Y8600000D01*
X2301433Y9500000D01*
X2301393Y9500500D01*
X2793100Y9500500D01*
X3500500Y8793100D01*
X3500500Y6500000D01*
X3505001Y6454096D01*
X3509024Y6408116D01*
X3509757Y6405594D01*
X3510013Y6402980D01*
X3523349Y6358807D01*
X3536221Y6314502D01*
X3537430Y6312171D01*
X3538189Y6309655D01*
X3559853Y6268911D01*
X3581084Y6227953D01*
X3582723Y6225900D01*
X3583956Y6223581D01*
X3613123Y6187818D01*
X3641903Y6151766D01*
X3645506Y6148112D01*
X3645569Y6148035D01*
X3645640Y6147976D01*
X3646800Y6146800D01*
X4686800Y5106800D01*
X4722481Y5077491D01*
X4757799Y5047856D01*
X4760098Y5046592D01*
X4762130Y5044923D01*
X4802848Y5023090D01*
X4843226Y5000892D01*
X4845726Y5000099D01*
X4848044Y4998856D01*
X4892171Y4985366D01*
X4936148Y4971415D01*
X4938762Y4971122D01*
X4941270Y4970355D01*
X4987159Y4965694D01*
X5033026Y4960549D01*
X5038158Y4960513D01*
X5038256Y4960503D01*
X5038347Y4960512D01*
X5040000Y4960500D01*
X6314992Y4960500D01*
X6425853Y4748442D01*
X6505402Y4649502D01*
X-1746038Y4649502D01*
X-3100498Y6003962D01*
X-3100498Y6699625D01*
X-2299500Y6699625D01*
X-2299500Y6460653D01*
X-2284148Y6383470D01*
X-2254032Y6310766D01*
X-2210312Y6245334D01*
X-2154667Y6189688D01*
X-2089234Y6145968D01*
X-2016530Y6115853D01*
X-1939348Y6100500D01*
X-1500375Y6100500D01*
X-1400500Y6200375D01*
X-1400500Y6799500D01*
X-1099500Y6799500D01*
X-1099500Y6200375D01*
X-999625Y6100500D01*
X-560652Y6100500D01*
X-483470Y6115853D01*
X-410766Y6145968D01*
X-345333Y6189688D01*
X-289688Y6245334D01*
X-245968Y6310766D01*
X-215852Y6383470D01*
X-200500Y6460653D01*
X-200500Y6699625D01*
X200500Y6699625D01*
X200500Y6460653D01*
X215852Y6383470D01*
X245968Y6310766D01*
X289688Y6245334D01*
X345333Y6189688D01*
X410766Y6145968D01*
X483470Y6115853D01*
X560652Y6100500D01*
X999625Y6100500D01*
X1099500Y6200375D01*
X1099500Y6799500D01*
X1400500Y6799500D01*
X1400500Y6200375D01*
X1500375Y6100500D01*
X1939348Y6100500D01*
X2016530Y6115853D01*
X2089234Y6145968D01*
X2154667Y6189688D01*
X2210312Y6245334D01*
X2254032Y6310766D01*
X2284148Y6383470D01*
X2299500Y6460653D01*
X2299500Y6699625D01*
X2199625Y6799500D01*
X1400500Y6799500D01*
X1099500Y6799500D01*
X300375Y6799500D01*
X200500Y6699625D01*
X-200500Y6699625D01*
X-300375Y6799500D01*
X-1099500Y6799500D01*
X-1400500Y6799500D01*
X-2199625Y6799500D01*
X-2299500Y6699625D01*
X-3100498Y6699625D01*
X-3100498Y6915686D01*
X-3105000Y6961598D01*
X-3109022Y7007569D01*
X-3109755Y7010090D01*
X-3110011Y7012706D01*
X-3123351Y7056891D01*
X-3136219Y7101184D01*
X-3137428Y7103515D01*
X-3138187Y7106031D01*
X-3159851Y7146775D01*
X-3181082Y7187733D01*
X-3182721Y7189786D01*
X-3183954Y7192105D01*
X-3213121Y7227868D01*
X-3241901Y7263920D01*
X-3245504Y7267574D01*
X-3245567Y7267651D01*
X-3245638Y7267710D01*
X-3246798Y7268886D01*
X-3856114Y7878202D01*
X-3891795Y7907511D01*
X-3927113Y7937146D01*
X-3929412Y7938410D01*
X-3931444Y7940079D01*
X-3972143Y7961901D01*
X-4012540Y7984110D01*
X-4015042Y7984904D01*
X-4017359Y7986146D01*
X-4061471Y7999632D01*
X-4105462Y8013587D01*
X-4108076Y8013880D01*
X-4110584Y8014647D01*
X-4156473Y8019308D01*
X-4202340Y8024453D01*
X-4207472Y8024489D01*
X-4207570Y8024499D01*
X-4207661Y8024490D01*
X-4209314Y8024502D01*
X-5290686Y8024502D01*
X-5336598Y8020000D01*
X-5382569Y8015978D01*
X-5385090Y8015245D01*
X-5387706Y8014989D01*
X-5431891Y8001649D01*
X-5476184Y7988781D01*
X-5478516Y7987572D01*
X-5481031Y7986813D01*
X-5521735Y7965170D01*
X-5562733Y7943919D01*
X-5564790Y7942277D01*
X-5567105Y7941046D01*
X-5602836Y7911905D01*
X-5638920Y7883099D01*
X-5642574Y7879496D01*
X-5642651Y7879433D01*
X-5642710Y7879362D01*
X-5643886Y7878202D01*
X-5772588Y7749500D01*
X-6510175Y7749500D01*
X-6551964Y7791582D01*
X-6665691Y7868292D01*
X-6792151Y7921451D01*
X-6926529Y7949035D01*
X-7063704Y7949992D01*
X-7198454Y7924287D01*
X-7325644Y7872899D01*
X-7440430Y7797785D01*
X-7538441Y7701806D01*
X-7615943Y7588617D01*
X-7669983Y7462531D01*
X-7698505Y7328350D01*
X-7700420Y7191184D01*
X-7675656Y7056259D01*
X-7625157Y6928713D01*
X-7550846Y6813405D01*
X-7499500Y6760234D01*
X-7499500Y6750000D01*
X-7494999Y6704096D01*
X-7490976Y6658116D01*
X-7490243Y6655594D01*
X-7489987Y6652980D01*
X-7476651Y6608807D01*
X-7463779Y6564502D01*
X-7462570Y6562171D01*
X-7461811Y6559655D01*
X-7440147Y6518911D01*
X-7418916Y6477953D01*
X-7417277Y6475900D01*
X-7416044Y6473581D01*
X-7386877Y6437818D01*
X-7358097Y6401766D01*
X-7354494Y6398112D01*
X-7354431Y6398035D01*
X-7354360Y6397976D01*
X-7353200Y6396800D01*
X-6353200Y5396800D01*
X-6317541Y5367509D01*
X-6282201Y5337856D01*
X-6279900Y5336591D01*
X-6277869Y5334923D01*
X-6237192Y5313112D01*
X-6196774Y5290892D01*
X-6194272Y5290098D01*
X-6191955Y5288856D01*
X-6147814Y5275361D01*
X-6103852Y5261415D01*
X-6101242Y5261122D01*
X-6098729Y5260354D01*
X-6052756Y5255684D01*
X-6006974Y5250549D01*
X-6001851Y5250513D01*
X-6001743Y5250502D01*
X-6001642Y5250512D01*
X-6000000Y5250500D01*
X-5456900Y5250500D01*
X-2699693Y2493293D01*
X-2700420Y2441184D01*
X-2675656Y2306259D01*
X-2625157Y2178713D01*
X-2550846Y2063405D01*
X-2455554Y1964726D01*
X-2342909Y1886436D01*
X-2217203Y1831517D01*
X-2083224Y1802059D01*
X-1946075Y1799187D01*
X-1810980Y1823007D01*
X-1683085Y1872615D01*
X-1567261Y1946119D01*
X-1467920Y2040720D01*
X-1388845Y2152816D01*
X-1333049Y2278135D01*
X-1302657Y2411905D01*
X-1300470Y2568590D01*
X-1327114Y2703156D01*
X-1379389Y2829985D01*
X-1393018Y2850498D01*
X10127414Y2850498D01*
X12061112Y916800D01*
X12096767Y887513D01*
X12132111Y857856D01*
X12134414Y856590D01*
X12136442Y854924D01*
X12177121Y833112D01*
X12217538Y810892D01*
X12220038Y810099D01*
X12222356Y808856D01*
X12266483Y795366D01*
X12310460Y781415D01*
X12313074Y781122D01*
X12315582Y780355D01*
X12319939Y779912D01*
X12275894Y726671D01*
X12155267Y503577D01*
X12080270Y261301D01*
X12053760Y9072D01*
X12076746Y-243502D01*
X12148353Y-486801D01*
X12265853Y-711558D01*
X12424771Y-909213D01*
X12619053Y-1072235D01*
X12743227Y-1140500D01*
X12420652Y-1140500D01*
X12343470Y-1155853D01*
X12270766Y-1185968D01*
X12205333Y-1229688D01*
X12149688Y-1285334D01*
X12105968Y-1350766D01*
X12075852Y-1423470D01*
X12060500Y-1500653D01*
X12060500Y-2039625D01*
X12160375Y-2139500D01*
X13059500Y-2139500D01*
X13059500Y-2119500D01*
X13860500Y-2119500D01*
X13860500Y-2139500D01*
X15599500Y-2139500D01*
X15599500Y-2119500D01*
X16400500Y-2119500D01*
X16400500Y-2139500D01*
X17299625Y-2139500D01*
X17399500Y-2039625D01*
X17399500Y-1500653D01*
X17384148Y-1423470D01*
X17354032Y-1350766D01*
X17310312Y-1285334D01*
X17254667Y-1229688D01*
X17189234Y-1185968D01*
X17116530Y-1155853D01*
X17039348Y-1140500D01*
X16814823Y-1140500D01*
X16865787Y-1108157D01*
X17064541Y-918887D01*
X17222746Y-694617D01*
X17334378Y-443888D01*
X17395183Y-176253D01*
X17399560Y137228D01*
X17346252Y406457D01*
X17241664Y660205D01*
X17089783Y888805D01*
X16896392Y1083551D01*
X16668857Y1237025D01*
X16593068Y1268884D01*
X16634056Y1284782D01*
X16865787Y1431843D01*
X17064541Y1621113D01*
X17222746Y1845383D01*
X17334378Y2096112D01*
X17395183Y2363747D01*
X17399560Y2677228D01*
X17346252Y2946457D01*
X17241664Y3200205D01*
X17089783Y3428805D01*
X16896392Y3623551D01*
X16668857Y3777025D01*
X16415846Y3883381D01*
X16146995Y3938568D01*
X15872546Y3940484D01*
X15602951Y3889056D01*
X15348480Y3786243D01*
X15118825Y3635961D01*
X14922733Y3443934D01*
X14767674Y3217477D01*
X14724557Y3116876D01*
X14654147Y3251558D01*
X14495229Y3449213D01*
X14300947Y3612235D01*
X14078700Y3734416D01*
X13836953Y3811103D01*
X13584916Y3839373D01*
X13566772Y3839500D01*
X13353228Y3839500D01*
X13100820Y3814751D01*
X12858027Y3741448D01*
X12634096Y3622381D01*
X12437556Y3462087D01*
X12275894Y3266671D01*
X12155267Y3043577D01*
X12154005Y3039500D01*
X11916900Y3039500D01*
X10853200Y4103200D01*
X10817519Y4132509D01*
X10786464Y4158567D01*
X11160000Y4158567D01*
X11223619Y4163640D01*
X11331523Y4197056D01*
X11425846Y4259211D01*
X11499119Y4345182D01*
X11545540Y4448163D01*
X11561433Y4560000D01*
X11561433Y6360000D01*
X11556360Y6423619D01*
X11522944Y6531523D01*
X11460789Y6625846D01*
X11374818Y6699119D01*
X11271837Y6745540D01*
X11160000Y6761433D01*
X10820294Y6761433D01*
X11025787Y6891843D01*
X11224541Y7081113D01*
X11382746Y7305383D01*
X11494378Y7556112D01*
X11555183Y7823747D01*
X11557083Y7959866D01*
X13125780Y7959866D01*
X13188315Y7402358D01*
X13357945Y6867614D01*
X13628211Y6376002D01*
X13988818Y5946248D01*
X14426030Y5594721D01*
X14923193Y5334810D01*
X15461372Y5176415D01*
X16020068Y5125570D01*
X16577998Y5184211D01*
X17113914Y5350104D01*
X17607400Y5616931D01*
X18039661Y5974529D01*
X18394232Y6409276D01*
X18657608Y6904613D01*
X18819756Y7441673D01*
X18874500Y8000000D01*
X18873379Y8080261D01*
X18803067Y8636841D01*
X18625986Y9169164D01*
X18348883Y9656955D01*
X17982311Y10081632D01*
X17540234Y10427021D01*
X17039490Y10679965D01*
X16499152Y10830830D01*
X15939801Y10873870D01*
X15382743Y10807444D01*
X14849197Y10634085D01*
X14359484Y10360393D01*
X13932258Y9996795D01*
X13583791Y9557140D01*
X13327357Y9058174D01*
X13172724Y8518902D01*
X13125780Y7959866D01*
X11557083Y7959866D01*
X11559560Y8137228D01*
X11506252Y8406457D01*
X11401664Y8660205D01*
X11249783Y8888805D01*
X11056392Y9083551D01*
X10828857Y9237025D01*
X10753068Y9268884D01*
X10794056Y9284782D01*
X11025787Y9431843D01*
X11224541Y9621113D01*
X11382746Y9845383D01*
X11494378Y10096112D01*
X11555183Y10363747D01*
X11559560Y10677228D01*
X11506252Y10946457D01*
X11401664Y11200205D01*
X11251979Y11425500D01*
X15976797Y11425500D01*
X16664907Y11358030D01*
X17304487Y11164930D01*
X17894385Y10851276D01*
X18412121Y10429020D01*
X18837983Y9914241D01*
X19155743Y9326555D01*
X19353305Y8688334D01*
X19425492Y8001529D01*
X19425500Y7999205D01*
X19425500Y-7976797D01*
X19358030Y-8664907D01*
X19164930Y-9304487D01*
X18851276Y-9894385D01*
X18429022Y-10412118D01*
X17914241Y-10837984D01*
X17326557Y-11155743D01*
X16688335Y-11353305D01*
X16001529Y-11425492D01*
X15999204Y-11425500D01*
X-15976797Y-11425500D01*
X-16664907Y-11358030D01*
X-17304487Y-11164930D01*
X-17894385Y-10851276D01*
X-18412118Y-10429022D01*
X-18837984Y-9914241D01*
X-19155743Y-9326557D01*
X-19353305Y-8688335D01*
X-19421434Y-8040134D01*
X-18874220Y-8040134D01*
X-18811685Y-8597642D01*
X-18642055Y-9132386D01*
X-18371789Y-9623998D01*
X-18011182Y-10053752D01*
X-17573970Y-10405279D01*
X-17076807Y-10665190D01*
X-16538628Y-10823585D01*
X-15979932Y-10874430D01*
X-15422002Y-10815789D01*
X-14886086Y-10649896D01*
X-14392600Y-10383069D01*
X-13960339Y-10025471D01*
X-13605768Y-9590724D01*
X-13342392Y-9095387D01*
X-13180244Y-8558327D01*
X-13129436Y-8040134D01*
X13125780Y-8040134D01*
X13188315Y-8597642D01*
X13357945Y-9132386D01*
X13628211Y-9623998D01*
X13988818Y-10053752D01*
X14426030Y-10405279D01*
X14923193Y-10665190D01*
X15461372Y-10823585D01*
X16020068Y-10874430D01*
X16577998Y-10815789D01*
X17113914Y-10649896D01*
X17607400Y-10383069D01*
X18039661Y-10025471D01*
X18394232Y-9590724D01*
X18657608Y-9095387D01*
X18819756Y-8558327D01*
X18874500Y-8000000D01*
X18873379Y-7919739D01*
X18803067Y-7363159D01*
X18625986Y-6830836D01*
X18348883Y-6343045D01*
X17982311Y-5918368D01*
X17540234Y-5572979D01*
X17039490Y-5320035D01*
X16499152Y-5169170D01*
X15939801Y-5126130D01*
X15382743Y-5192556D01*
X14849197Y-5365915D01*
X14359484Y-5639607D01*
X13932258Y-6003205D01*
X13583791Y-6442860D01*
X13327357Y-6941826D01*
X13172724Y-7481098D01*
X13125780Y-8040134D01*
X-13129436Y-8040134D01*
X-13125500Y-8000000D01*
X-13126621Y-7919739D01*
X-13196933Y-7363159D01*
X-13374014Y-6830836D01*
X-13651117Y-6343045D01*
X-14017689Y-5918368D01*
X-14459766Y-5572979D01*
X-14960510Y-5320035D01*
X-15500848Y-5169170D01*
X-16060199Y-5126130D01*
X-16617257Y-5192556D01*
X-17150803Y-5365915D01*
X-17640516Y-5639607D01*
X-18067742Y-6003205D01*
X-18416209Y-6442860D01*
X-18672643Y-6941826D01*
X-18827276Y-7481098D01*
X-18874220Y-8040134D01*
X-19421434Y-8040134D01*
X-19425492Y-8001529D01*
X-19425500Y-7999204D01*
X-19425500Y-3114479D01*
X-19424667Y-3115312D01*
X-19359234Y-3159032D01*
X-19286530Y-3189147D01*
X-19209348Y-3204500D01*
X-18770375Y-3204500D01*
X-18670500Y-3104625D01*
X-18670500Y-2305500D01*
X-17869500Y-2305500D01*
X-17869500Y-3104625D01*
X-17769625Y-3204500D01*
X-17618957Y-3204500D01*
X-17621011Y-3351653D01*
X-17580317Y-3573378D01*
X-17497331Y-3782976D01*
X-17375215Y-3972464D01*
X-17218619Y-4134624D01*
X-17033508Y-4263279D01*
X-16826934Y-4353529D01*
X-16606764Y-4401937D01*
X-16381385Y-4406658D01*
X-16159381Y-4367512D01*
X-15949208Y-4285992D01*
X-15758873Y-4165201D01*
X-15595624Y-4009741D01*
X-15465679Y-3825533D01*
X-15373989Y-3619594D01*
X-15324046Y-3399768D01*
X-15320451Y-3142286D01*
X-15340629Y-3040375D01*
X12060500Y-3040375D01*
X12060500Y-3579347D01*
X12075852Y-3656530D01*
X12105968Y-3729234D01*
X12149688Y-3794666D01*
X12205333Y-3850312D01*
X12270766Y-3894032D01*
X12343470Y-3924147D01*
X12420652Y-3939500D01*
X12959625Y-3939500D01*
X13059500Y-3839625D01*
X13059500Y-2940500D01*
X13860500Y-2940500D01*
X13860500Y-3839625D01*
X13960375Y-3939500D01*
X14499348Y-3939500D01*
X14576530Y-3924147D01*
X14649234Y-3894032D01*
X14714667Y-3850312D01*
X14730000Y-3834979D01*
X14745333Y-3850312D01*
X14810766Y-3894032D01*
X14883470Y-3924147D01*
X14960652Y-3939500D01*
X15499625Y-3939500D01*
X15599500Y-3839625D01*
X15599500Y-2940500D01*
X16400500Y-2940500D01*
X16400500Y-3839625D01*
X16500375Y-3939500D01*
X17039348Y-3939500D01*
X17116530Y-3924147D01*
X17189234Y-3894032D01*
X17254667Y-3850312D01*
X17310312Y-3794666D01*
X17354032Y-3729234D01*
X17384148Y-3656530D01*
X17399500Y-3579347D01*
X17399500Y-3040375D01*
X17299625Y-2940500D01*
X16400500Y-2940500D01*
X15599500Y-2940500D01*
X13860500Y-2940500D01*
X13059500Y-2940500D01*
X12160375Y-2940500D01*
X12060500Y-3040375D01*
X-15340629Y-3040375D01*
X-15364237Y-2921150D01*
X-15450141Y-2712731D01*
X-15574891Y-2524967D01*
X-15733736Y-2365009D01*
X-15920625Y-2238951D01*
X-16128439Y-2151594D01*
X-16349263Y-2106266D01*
X-16574686Y-2104692D01*
X-16796122Y-2146933D01*
X-17005136Y-2231380D01*
X-17118403Y-2305500D01*
X-17869500Y-2305500D01*
X-18670500Y-2305500D01*
X-18690500Y-2305500D01*
X-18690500Y-1504500D01*
X-18670500Y-1504500D01*
X-18670500Y-1484500D01*
X-17869500Y-1484500D01*
X-17869500Y-1504500D01*
X-17070375Y-1504500D01*
X-16970500Y-1404625D01*
X-16970500Y-1032062D01*
X-16891389Y-1231873D01*
X-16753338Y-1446087D01*
X-16576307Y-1629408D01*
X-16367041Y-1774851D01*
X-16133511Y-1876878D01*
X-15884610Y-1931602D01*
X-15629821Y-1936940D01*
X-15378848Y-1892686D01*
X-15141250Y-1800528D01*
X-14926077Y-1663975D01*
X-14741525Y-1488229D01*
X-14594624Y-1279983D01*
X-14490969Y-1047171D01*
X-14434509Y-798659D01*
X-14430444Y-507577D01*
X-14479944Y-257586D01*
X-14577058Y-21970D01*
X-14718087Y190296D01*
X-14897659Y371127D01*
X-15108936Y513635D01*
X-15343868Y612391D01*
X-15451548Y634495D01*
X-15378848Y647314D01*
X-15141250Y739472D01*
X-14926077Y876025D01*
X-14741525Y1051771D01*
X-14594624Y1260017D01*
X-14490969Y1492829D01*
X-14434509Y1741341D01*
X-14430444Y2032423D01*
X-14479944Y2282414D01*
X-14577058Y2518030D01*
X-14718087Y2730296D01*
X-14897659Y2911127D01*
X-15108936Y3053635D01*
X-15343868Y3152391D01*
X-15593508Y3203635D01*
X-15848347Y3205414D01*
X-16098678Y3157661D01*
X-16334966Y3062194D01*
X-16548212Y2922650D01*
X-16730292Y2744344D01*
X-16874271Y2534068D01*
X-16974665Y2299831D01*
X-17027650Y2050555D01*
X-17031208Y1795734D01*
X-16985204Y1545076D01*
X-16891389Y1308127D01*
X-16753338Y1093913D01*
X-16576307Y910592D01*
X-16367041Y765149D01*
X-16133511Y663122D01*
X-16006616Y635223D01*
X-16098678Y617661D01*
X-16334966Y522194D01*
X-16548212Y382650D01*
X-16730292Y204344D01*
X-16874271Y-5932D01*
X-16974665Y-240169D01*
X-17027650Y-489445D01*
X-17031208Y-744266D01*
X-17018887Y-811397D01*
X-17059688Y-750334D01*
X-17115333Y-694688D01*
X-17180766Y-650968D01*
X-17253470Y-620853D01*
X-17330652Y-605500D01*
X-17769625Y-605500D01*
X-17869498Y-705373D01*
X-17869498Y-605500D01*
X-17874540Y-605500D01*
X-17681250Y-530528D01*
X-17466077Y-393975D01*
X-17281525Y-218229D01*
X-17134624Y-9983D01*
X-17030969Y222829D01*
X-16974509Y471341D01*
X-16970444Y762423D01*
X-17019944Y1012414D01*
X-17117058Y1248030D01*
X-17258087Y1460296D01*
X-17437659Y1641127D01*
X-17648936Y1783635D01*
X-17883868Y1882391D01*
X-18133508Y1933635D01*
X-18388347Y1935414D01*
X-18638678Y1887661D01*
X-18874966Y1792194D01*
X-19088212Y1652650D01*
X-19270292Y1474344D01*
X-19414271Y1264068D01*
X-19425500Y1237869D01*
X-19425500Y7959866D01*
X-18874220Y7959866D01*
X-18811685Y7402358D01*
X-18642055Y6867614D01*
X-18371789Y6376002D01*
X-18011182Y5946248D01*
X-17573970Y5594721D01*
X-17076807Y5334810D01*
X-16538628Y5176415D01*
X-15979932Y5125570D01*
X-15422002Y5184211D01*
X-14886086Y5350104D01*
X-14392600Y5616931D01*
X-13960339Y5974529D01*
X-13605768Y6409276D01*
X-13342392Y6904613D01*
X-13180244Y7441673D01*
X-13131267Y7941184D01*
X-9200420Y7941184D01*
X-9175656Y7806259D01*
X-9125157Y7678713D01*
X-9050846Y7563405D01*
X-8999500Y7510234D01*
X-8999500Y3250000D01*
X-8994999Y3204096D01*
X-8990976Y3158116D01*
X-8990243Y3155594D01*
X-8989987Y3152980D01*
X-8976651Y3108807D01*
X-8963779Y3064502D01*
X-8962570Y3062171D01*
X-8961811Y3059655D01*
X-8940147Y3018911D01*
X-8918916Y2977953D01*
X-8917277Y2975900D01*
X-8916044Y2973581D01*
X-8886906Y2937854D01*
X-8858097Y2901766D01*
X-8854494Y2898112D01*
X-8854431Y2898035D01*
X-8854360Y2897976D01*
X-8853200Y2896800D01*
X-8449693Y2493293D01*
X-8450420Y2441184D01*
X-8425656Y2306259D01*
X-8375157Y2178713D01*
X-8300846Y2063405D01*
X-8205554Y1964726D01*
X-8092909Y1886436D01*
X-7967203Y1831517D01*
X-7833224Y1802059D01*
X-7756860Y1800460D01*
X-6603200Y646800D01*
X-6567545Y617513D01*
X-6532201Y587856D01*
X-6529898Y586590D01*
X-6527870Y584924D01*
X-6487191Y563112D01*
X-6446774Y540892D01*
X-6444274Y540099D01*
X-6441956Y538856D01*
X-6397829Y525366D01*
X-6353852Y511415D01*
X-6351238Y511122D01*
X-6348730Y510355D01*
X-6302841Y505694D01*
X-6256974Y500549D01*
X-6251842Y500513D01*
X-6251744Y500503D01*
X-6251653Y500512D01*
X-6250000Y500500D01*
X-5490100Y500500D01*
X-5455554Y464726D01*
X-5342909Y386436D01*
X-5217203Y331517D01*
X-5083224Y302059D01*
X-4946075Y299187D01*
X-4810980Y323007D01*
X-4683085Y372615D01*
X-4567261Y446119D01*
X-4467920Y540720D01*
X-4388845Y652816D01*
X-4333049Y778135D01*
X-4302657Y911905D01*
X-4300470Y1068590D01*
X-4327114Y1203156D01*
X-4379389Y1329985D01*
X-4455303Y1444244D01*
X-4518596Y1507981D01*
X-689500Y1507981D01*
X-689500Y492019D01*
X-667608Y268747D01*
X-602766Y53979D01*
X-497443Y-144105D01*
X-355652Y-317958D01*
X-182792Y-460960D01*
X14551Y-567663D01*
X228861Y-634003D01*
X451975Y-657453D01*
X675395Y-637120D01*
X890610Y-573779D01*
X1089424Y-469842D01*
X1264263Y-329267D01*
X1408468Y-157411D01*
X1516546Y39183D01*
X1584381Y253025D01*
X1609388Y475969D01*
X1609500Y492019D01*
X1609500Y849500D01*
X1850500Y849500D01*
X1850500Y349500D01*
X1901948Y128135D01*
X1995594Y-78939D01*
X2127839Y-263765D01*
X2293600Y-419240D01*
X2486508Y-539389D01*
X2673079Y-602031D01*
X2849500Y-538779D01*
X2849500Y849500D01*
X3150500Y849500D01*
X3150500Y-538779D01*
X3326921Y-602031D01*
X3513492Y-539389D01*
X3706400Y-419240D01*
X3872161Y-263765D01*
X4004406Y-78939D01*
X4098052Y128135D01*
X4149500Y349500D01*
X4149500Y849500D01*
X3150500Y849500D01*
X2849500Y849500D01*
X1850500Y849500D01*
X1609500Y849500D01*
X1609500Y1507981D01*
X1595526Y1650500D01*
X1850500Y1650500D01*
X1850500Y1150500D01*
X2849500Y1150500D01*
X2849500Y2538779D01*
X3150500Y2538779D01*
X3150500Y1150500D01*
X4149500Y1150500D01*
X4149500Y1507981D01*
X4390500Y1507981D01*
X4390500Y492019D01*
X4412392Y268747D01*
X4477234Y53979D01*
X4582557Y-144105D01*
X4724348Y-317958D01*
X4897208Y-460960D01*
X5094551Y-567663D01*
X5308861Y-634003D01*
X5531975Y-657453D01*
X5755395Y-637120D01*
X5970610Y-573779D01*
X6169424Y-469842D01*
X6344263Y-329267D01*
X6488468Y-157411D01*
X6596546Y39183D01*
X6664381Y253025D01*
X6689388Y475969D01*
X6689500Y492019D01*
X6689500Y1507981D01*
X6667608Y1731253D01*
X6602766Y1946021D01*
X6497443Y2144105D01*
X6355652Y2317958D01*
X6182792Y2460960D01*
X5985449Y2567663D01*
X5771139Y2634003D01*
X5548025Y2657453D01*
X5324605Y2637120D01*
X5109390Y2573779D01*
X4910576Y2469842D01*
X4735737Y2329267D01*
X4591532Y2157411D01*
X4483454Y1960817D01*
X4415619Y1746975D01*
X4390612Y1524031D01*
X4390500Y1507981D01*
X4149500Y1507981D01*
X4149500Y1650500D01*
X4098052Y1871865D01*
X4004406Y2078939D01*
X3872161Y2263765D01*
X3706400Y2419240D01*
X3513492Y2539389D01*
X3326921Y2602031D01*
X3150500Y2538779D01*
X2849500Y2538779D01*
X2673079Y2602031D01*
X2486508Y2539389D01*
X2293600Y2419240D01*
X2127839Y2263765D01*
X1995594Y2078939D01*
X1901948Y1871865D01*
X1850500Y1650500D01*
X1595526Y1650500D01*
X1587608Y1731253D01*
X1522766Y1946021D01*
X1417443Y2144105D01*
X1275652Y2317958D01*
X1102792Y2460960D01*
X905449Y2567663D01*
X691139Y2634003D01*
X468025Y2657453D01*
X244605Y2637120D01*
X29390Y2573779D01*
X-169424Y2469842D01*
X-344263Y2329267D01*
X-488468Y2157411D01*
X-596546Y1960817D01*
X-664381Y1746975D01*
X-689388Y1524031D01*
X-689500Y1507981D01*
X-4518596Y1507981D01*
X-4551964Y1541582D01*
X-4665691Y1618292D01*
X-4792151Y1671451D01*
X-4926529Y1699035D01*
X-5063704Y1699992D01*
X-5198454Y1674287D01*
X-5325644Y1622899D01*
X-5440430Y1547785D01*
X-5489737Y1499500D01*
X-6043100Y1499500D01*
X-7051320Y2507720D01*
X-7050470Y2568590D01*
X-7077114Y2703156D01*
X-7129389Y2829985D01*
X-7205303Y2944244D01*
X-7301964Y3041582D01*
X-7415691Y3118292D01*
X-7542151Y3171451D01*
X-7676529Y3199035D01*
X-7743099Y3199499D01*
X-8000500Y3456900D01*
X-8000500Y7509695D01*
X-7967920Y7540720D01*
X-7888845Y7652816D01*
X-7833049Y7778135D01*
X-7802657Y7911905D01*
X-7800470Y8068590D01*
X-7827114Y8203156D01*
X-7879389Y8329985D01*
X-7955303Y8444244D01*
X-8051964Y8541582D01*
X-8165691Y8618292D01*
X-8292151Y8671451D01*
X-8426529Y8699035D01*
X-8563704Y8699992D01*
X-8698454Y8674287D01*
X-8825644Y8622899D01*
X-8940430Y8547785D01*
X-9038441Y8451806D01*
X-9115943Y8338617D01*
X-9169983Y8212531D01*
X-9198505Y8078350D01*
X-9200420Y7941184D01*
X-13131267Y7941184D01*
X-13125500Y8000000D01*
X-13126621Y8080261D01*
X-13196933Y8636841D01*
X-13374014Y9169164D01*
X-13651117Y9656955D01*
X-14017689Y10081632D01*
X-14459766Y10427021D01*
X-14960510Y10679965D01*
X-15500848Y10830830D01*
X-16060199Y10873870D01*
X-16617257Y10807444D01*
X-17150803Y10634085D01*
X-17640516Y10360393D01*
X-18067742Y9996795D01*
X-18416209Y9557140D01*
X-18672643Y9058174D01*
X-18827276Y8518902D01*
X-18874220Y7959866D01*
X-19425500Y7959866D01*
X-19425500Y7976797D01*
X-19358030Y8664907D01*
X-19164930Y9304487D01*
X-18851276Y9894385D01*
X-18429020Y10412121D01*
X-17914241Y10837983D01*
X-17326555Y11155743D01*
X-16688334Y11353305D01*
X-16001529Y11425492D01*
X-15999205Y11425500D01*
X6576253Y11425500D01*
X6441365Y11261252D01*
M02*
