G04 #@! TF.FileFunction,Copper,L1,Top,Signal*
%FSLAX46Y46*%
G04 Gerber Fmt 4.6, Leading zero omitted, Abs format (unit mm)*
G04 Created by KiCad (PCBNEW (2015-08-26 BZR 6129, Git 2e41367)-product) date 9/23/2019 12:40:43 AM*
%MOMM*%
G01*
G04 APERTURE LIST*
%ADD10C,0.100000*%
%ADD11R,1.600000X1.000000*%
%ADD12R,0.900000X1.300000*%
%ADD13R,1.300000X0.900000*%
%ADD14R,2.000000X1.800000*%
%ADD15O,2.000000X1.800000*%
%ADD16C,2.000000*%
%ADD17R,2.000000X2.000000*%
%ADD18O,1.500000X2.500000*%
%ADD19R,4.300000X1.800000*%
%ADD20R,1.200000X1.350000*%
%ADD21R,1.350000X1.200000*%
%ADD22R,2.600000X2.600000*%
%ADD23R,1.800000X1.800000*%
%ADD24C,1.800000*%
%ADD25R,3.500000X1.780000*%
%ADD26R,1.000000X1.400000*%
%ADD27R,0.600000X2.000000*%
%ADD28C,0.600000*%
%ADD29C,1.000000*%
%ADD30C,0.200000*%
%ADD31C,1.000000*%
%ADD32C,0.500000*%
%ADD33C,0.199000*%
G04 APERTURE END LIST*
D10*
D11*
X-10000000Y-7500000D03*
X-10000000Y-10700000D03*
D12*
X7450000Y0D03*
X9550000Y0D03*
D13*
X-10500000Y8550000D03*
X-10500000Y6450000D03*
D14*
X10160000Y5460000D03*
D15*
X7620000Y5460000D03*
D16*
X10160000Y8000000D03*
D15*
X7620000Y8000000D03*
D16*
X10160000Y10540000D03*
D15*
X7620000Y10540000D03*
D17*
X16000000Y-2540000D03*
X13460000Y-2540000D03*
D16*
X16000000Y0D03*
D15*
X13460000Y0D03*
D16*
X16000000Y2540000D03*
D15*
X13460000Y2540000D03*
D18*
X460000Y1000000D03*
X3000000Y1000000D03*
X5540000Y1000000D03*
D19*
X2750000Y-7500000D03*
X9250000Y-7500000D03*
D12*
X4950000Y-2000000D03*
X7050000Y-2000000D03*
X-2950000Y2500000D03*
X-5050000Y2500000D03*
X-6950000Y2500000D03*
X-9050000Y2500000D03*
X9550000Y2000000D03*
X7450000Y2000000D03*
D20*
X-2700000Y-4525000D03*
X-4500000Y-4525000D03*
X-6300000Y-4525000D03*
X-6300000Y-10475000D03*
X-4500000Y-10475000D03*
X-2700000Y-10475000D03*
D21*
X-7475000Y-7500000D03*
X-1525000Y-7500000D03*
D22*
X-4500000Y-7500000D03*
D23*
X-18270000Y-1905000D03*
D24*
X-15730000Y-635000D03*
X-18270000Y635000D03*
X-15730000Y1905000D03*
D25*
X-12000000Y2615000D03*
X-12000000Y-2615000D03*
D26*
X-7050000Y100000D03*
X-8950000Y100000D03*
X-8000000Y-2100000D03*
X-3050000Y100000D03*
X-4950000Y100000D03*
X-4000000Y-2100000D03*
D27*
X-940000Y10100000D03*
X-2210000Y10100000D03*
X-3480000Y10100000D03*
X-4750000Y10100000D03*
X-6020000Y10100000D03*
X-7290000Y10100000D03*
X-8560000Y10100000D03*
X-8560000Y4900000D03*
X-7290000Y4900000D03*
X-6020000Y4900000D03*
X-4750000Y4900000D03*
X-3480000Y4900000D03*
X-2210000Y4900000D03*
X-940000Y4900000D03*
D12*
X450000Y-2000000D03*
X2550000Y-2000000D03*
D28*
X-6000000Y-7500000D03*
X-10000000Y-9700000D03*
X-11300000Y-10700000D03*
X-10500000Y5500000D03*
X0Y5000000D03*
X3250000Y-2000000D03*
X9000000Y0D03*
X7750000Y-2000000D03*
D29*
X10250000Y-6000000D03*
X8250000Y-6000000D03*
X10250000Y-9000000D03*
X8250000Y-9000000D03*
D28*
X-3000000Y-7500000D03*
X-4500000Y-6000000D03*
X-4500000Y-9000000D03*
X-4700000Y-2100000D03*
X-6400000Y100000D03*
X-7000000Y-800000D03*
X-1500000Y-8250000D03*
X-1500000Y-6750000D03*
X-7000000Y-4600000D03*
X-5200000Y-4600000D03*
X-4500000Y-7500000D03*
X-5250000Y-6750000D03*
X-3750000Y-6750000D03*
X-3750000Y-8250000D03*
X-5250000Y-8250000D03*
X-10500000Y9500000D03*
X0Y10000000D03*
X-5000000Y1000000D03*
X-8500000Y8000000D03*
X-7750000Y2500000D03*
X-4750000Y6500000D03*
X-5750000Y6500000D03*
X-2000000Y2500000D03*
X-7000000Y7250000D03*
X200000Y9000000D03*
X-3000000Y8400000D03*
D30*
X-7475000Y-7500000D02*
X-7475000Y-9300000D01*
X-7475000Y-9300000D02*
X-6300000Y-10475000D01*
D31*
X-9250000Y-2615000D02*
X-8515000Y-2615000D01*
X-8515000Y-2615000D02*
X-8000000Y-2100000D01*
X-12000000Y-2615000D02*
X-9250000Y-2615000D01*
X-9250000Y-5500000D02*
X-9250000Y-7500000D01*
X-9250000Y-5500000D02*
X-9250000Y-2615000D01*
X-9250000Y-7500000D02*
X-7475000Y-7500000D01*
X-9000000Y-7500000D02*
X-10000000Y-7500000D01*
D32*
X-4500000Y-7500000D02*
X-6000000Y-7500000D01*
D30*
X-10000000Y-10700000D02*
X-10000000Y-9700000D01*
X-10000000Y-10700000D02*
X-11300000Y-10700000D01*
X-10500000Y6450000D02*
X-10500000Y5500000D01*
X-940000Y4900000D02*
X-100000Y4900000D01*
X-100000Y4900000D02*
X0Y5000000D01*
D32*
X2550000Y-2000000D02*
X3250000Y-2000000D01*
X9550000Y0D02*
X9000000Y0D01*
X7050000Y-2000000D02*
X7750000Y-2000000D01*
X-10000000Y-10700000D02*
X-9450000Y-10700000D01*
X-9450000Y-10700000D02*
X-9500000Y-10650000D01*
D31*
X9250000Y-7500000D02*
X10250000Y-7500000D01*
X10250000Y-7500000D02*
X10250000Y-6000000D01*
X9250000Y-7500000D02*
X8750000Y-7500000D01*
X8750000Y-7500000D02*
X8250000Y-7000000D01*
X8250000Y-7000000D02*
X8250000Y-6000000D01*
X9250000Y-7500000D02*
X10000000Y-7500000D01*
X10000000Y-7500000D02*
X10250000Y-7750000D01*
X10250000Y-7750000D02*
X10250000Y-9000000D01*
X9250000Y-7500000D02*
X8750000Y-7500000D01*
X8750000Y-7500000D02*
X8250000Y-8000000D01*
X8250000Y-8000000D02*
X8250000Y-9000000D01*
D32*
X-4500000Y-7500000D02*
X-3000000Y-7500000D01*
X-4500000Y-7500000D02*
X-4500000Y-6000000D01*
X-4500000Y-9000000D02*
X-4500000Y-7500000D01*
X-4500000Y-10475000D02*
X-4500000Y-9000000D01*
X-4000000Y-2100000D02*
X-4700000Y-2100000D01*
X-7050000Y100000D02*
X-6400000Y100000D01*
X-7050000Y100000D02*
X-7000000Y50000D01*
X-7000000Y50000D02*
X-7000000Y-800000D01*
D30*
X-1525000Y-7500000D02*
X-1525000Y-8225000D01*
X-1525000Y-8225000D02*
X-1500000Y-8250000D01*
X-1525000Y-7500000D02*
X-1525000Y-6775000D01*
X-1525000Y-6775000D02*
X-1500000Y-6750000D01*
X-6300000Y-4525000D02*
X-6925000Y-4525000D01*
X-6925000Y-4525000D02*
X-7000000Y-4600000D01*
X-4500000Y-4525000D02*
X-5125000Y-4525000D01*
X-5125000Y-4525000D02*
X-5200000Y-4600000D01*
X-4500000Y-7500000D02*
X-5250000Y-6750000D01*
X-3750000Y-8250000D02*
X-5250000Y-8250000D01*
X-7050000Y100000D02*
X-6900000Y250000D01*
X-10500000Y9500000D02*
X-10500000Y8550000D01*
X-940000Y10100000D02*
X-940000Y10560000D01*
X-940000Y10560000D02*
X-750000Y10000000D01*
X-750000Y10000000D02*
X0Y10000000D01*
D32*
X4950000Y-2000000D02*
X4950000Y-4000000D01*
X4950000Y-4000000D02*
X5250000Y-4000000D01*
D30*
X9550000Y2000000D02*
X9550000Y3500000D01*
X9500000Y3250000D02*
X9500000Y3500000D01*
X9500000Y3450000D02*
X9500000Y3250000D01*
X9550000Y3500000D02*
X9500000Y3450000D01*
D31*
X7620000Y5460000D02*
X7620000Y4130000D01*
X8250000Y3500000D02*
X9500000Y3500000D01*
X9500000Y3500000D02*
X10500000Y3500000D01*
X7620000Y4130000D02*
X8250000Y3500000D01*
X11250000Y0D02*
X11250000Y2750000D01*
X11250000Y2750000D02*
X10500000Y3500000D01*
X11250000Y0D02*
X11250000Y-1000000D01*
X4500000Y-4000000D02*
X2750000Y-5750000D01*
X2750000Y-7500000D02*
X2750000Y-5750000D01*
X8250000Y-4000000D02*
X5250000Y-4000000D01*
X5250000Y-4000000D02*
X4500000Y-4000000D01*
X11250000Y0D02*
X13460000Y0D01*
X11250000Y-1000000D02*
X8250000Y-4000000D01*
X16000000Y0D02*
X13460000Y0D01*
X-2700000Y-10475000D02*
X1525000Y-10475000D01*
X1525000Y-10475000D02*
X2750000Y-9250000D01*
X2750000Y-9250000D02*
X2750000Y-7500000D01*
D30*
X-6400002Y7650002D02*
X-4084314Y7650002D01*
X-4084314Y7650002D02*
X-3724998Y7290686D01*
X-3724998Y7290686D02*
X4856374Y7290686D01*
X4856374Y7290686D02*
X5565688Y8000000D01*
X5565688Y8000000D02*
X7620000Y8000000D01*
X-4950000Y100000D02*
X-4950000Y950000D01*
X-4950000Y950000D02*
X-5000000Y1000000D01*
X-8560000Y10100000D02*
X-8560000Y8060000D01*
X-8560000Y8060000D02*
X-8500000Y8000000D01*
X-8500000Y8000000D02*
X-6750000Y8000000D01*
X-6750000Y8000000D02*
X-6400002Y7650002D01*
X-6950000Y2500000D02*
X-7750000Y2500000D01*
X8890000Y6730000D02*
X4910684Y6730000D01*
X4910684Y6730000D02*
X4750000Y6890684D01*
X4750000Y6890684D02*
X-3890684Y6890684D01*
X-3890684Y6890684D02*
X-4000000Y7000000D01*
X-6000000Y7250000D02*
X-4250000Y7250000D01*
X-4250000Y7250000D02*
X-4000000Y7000000D01*
X-4000000Y7000000D02*
X-3890684Y6890684D01*
X-7000000Y6500000D02*
X-6750000Y6500000D01*
X-6750000Y6500000D02*
X-6000000Y7250000D01*
X-7290000Y4900000D02*
X-7290000Y6210000D01*
X-7290000Y6210000D02*
X-7000000Y6500000D01*
X8890000Y6730000D02*
X10160000Y8000000D01*
X-3559312Y7690688D02*
X4690688Y7690688D01*
X4690688Y7690688D02*
X4750000Y7750000D01*
X-4750000Y10100000D02*
X-4750000Y8500000D01*
X-4750000Y8500000D02*
X-4300004Y8050004D01*
X-4300004Y8050004D02*
X-3918628Y8050004D01*
X-3918628Y8050004D02*
X-3559312Y7690688D01*
X-4300004Y8050004D02*
X-4750000Y8500000D01*
X-4750000Y8500000D02*
X-4750000Y10100000D01*
X8890000Y9270000D02*
X6270000Y9270000D01*
X6270000Y9270000D02*
X4750000Y7750000D01*
X-4750000Y8500000D02*
X-4750000Y10100000D01*
X-4750000Y10100000D02*
X-4750000Y8650002D01*
X-4750000Y10100000D02*
X-4750000Y8650002D01*
X6270000Y9270000D02*
X6250000Y9250000D01*
X6250000Y9250000D02*
X6250000Y9270000D01*
X10160000Y10540000D02*
X8890000Y9270000D01*
X8890000Y9270000D02*
X6250000Y9270000D01*
X-4750000Y4900000D02*
X-4750000Y6500000D01*
X-4750000Y4900000D02*
X-4600000Y4750000D01*
X-4750000Y4900000D02*
X-4750000Y4000000D01*
X-6020000Y4900000D02*
X-6020000Y6230000D01*
X-6020000Y6230000D02*
X-5750000Y6500000D01*
X-7750000Y1250000D02*
X-6150000Y1250000D01*
X-6150000Y1250000D02*
X-5050000Y2350000D01*
X-5050000Y2350000D02*
X-5050000Y2500000D01*
X-5050000Y2500000D02*
X-5050000Y2200000D01*
X-8000000Y1000000D02*
X-7750000Y1250000D01*
X-8000000Y-750000D02*
X-8000000Y1000000D01*
X-8250000Y-1000000D02*
X-8000000Y-750000D01*
X-14115000Y-635000D02*
X-15730000Y-635000D01*
X-13750000Y-1000000D02*
X-14115000Y-635000D01*
X-8250000Y-1000000D02*
X-13750000Y-1000000D01*
X-18270000Y635000D02*
X-14115000Y635000D01*
X-14115000Y635000D02*
X-13750000Y1000000D01*
X-13750000Y1000000D02*
X-10000000Y1000000D01*
X-10000000Y1000000D02*
X-9625000Y1375000D01*
X-9625000Y1375000D02*
X-9375000Y1375000D01*
X-9625000Y1375000D02*
X-9375000Y1375000D01*
X-9050000Y1700000D02*
X-9050000Y2500000D01*
X-9375000Y1375000D02*
X-9050000Y1700000D01*
X-9050000Y1950000D02*
X-9050000Y2500000D01*
X7450000Y1000000D02*
X5540000Y1000000D01*
X7450000Y2000000D02*
X7450000Y1000000D01*
X7450000Y1000000D02*
X7450000Y0D01*
X-3480000Y4900000D02*
X-3480000Y6230000D01*
X-3480000Y6230000D02*
X-3219318Y6490682D01*
X-3219318Y6490682D02*
X9318Y6490682D01*
X9318Y6490682D02*
X750000Y5750000D01*
X750000Y5750000D02*
X750000Y3500000D01*
X750000Y3500000D02*
X460000Y3210000D01*
X460000Y3210000D02*
X460000Y1000000D01*
X460000Y460000D02*
X460000Y1000000D01*
X-2700000Y-4525000D02*
X-525000Y-4525000D01*
X450000Y-3550000D02*
X450000Y-2000000D01*
X-525000Y-4525000D02*
X450000Y-3550000D01*
D31*
X-12000000Y2615000D02*
X-15020000Y2615000D01*
X-15020000Y2615000D02*
X-15730000Y1905000D01*
D30*
X-3050000Y100000D02*
X-3050000Y1200000D01*
X-3050000Y1200000D02*
X-2950000Y1300000D01*
X-2950000Y1300000D02*
X-2950000Y2500000D01*
X-8560000Y4900000D02*
X-8560000Y6440000D01*
X-8560000Y6440000D02*
X-7750000Y7250000D01*
X-7750000Y7250000D02*
X-7000000Y7250000D01*
X-2950000Y2500000D02*
X-2000000Y2500000D01*
X200000Y9000000D02*
X-400000Y8400000D01*
X-400000Y8400000D02*
X-1800000Y8400000D01*
X-1800000Y8400000D02*
X-2210000Y8810000D01*
X-2210000Y8810000D02*
X-2210000Y10100000D01*
X-3480000Y10100000D02*
X-3480000Y8880000D01*
X-3480000Y8880000D02*
X-3000000Y8400000D01*
D33*
G36*
X-16891389Y-1231873D02*
X-16753338Y-1446087D01*
X-16576307Y-1629408D01*
X-16367041Y-1774851D01*
X-16133511Y-1876878D01*
X-15884610Y-1931602D01*
X-15629821Y-1936940D01*
X-15378848Y-1892686D01*
X-15141250Y-1800528D01*
X-14926077Y-1663975D01*
X-14741525Y-1488229D01*
X-14594624Y-1279983D01*
X-14529851Y-1134500D01*
X-14321900Y-1134500D01*
X-14103200Y-1353200D01*
X-14067519Y-1382509D01*
X-14032201Y-1412144D01*
X-14029902Y-1413408D01*
X-14027870Y-1415077D01*
X-14013598Y-1422730D01*
X-14015846Y-1424211D01*
X-14089119Y-1510182D01*
X-14135540Y-1613163D01*
X-14151433Y-1725000D01*
X-14151433Y-3505000D01*
X-14146360Y-3568619D01*
X-14112944Y-3676523D01*
X-14050789Y-3770846D01*
X-13964818Y-3844119D01*
X-13861837Y-3890540D01*
X-13750000Y-3906433D01*
X-10250000Y-3906433D01*
X-10186381Y-3901360D01*
X-10149500Y-3889939D01*
X-10149500Y-6598567D01*
X-10800000Y-6598567D01*
X-10863619Y-6603640D01*
X-10971523Y-6637056D01*
X-11065846Y-6699211D01*
X-11139119Y-6785182D01*
X-11185540Y-6888163D01*
X-11201433Y-7000000D01*
X-11201433Y-8000000D01*
X-11196360Y-8063619D01*
X-11162944Y-8171523D01*
X-11100789Y-8265846D01*
X-11014818Y-8339119D01*
X-10911837Y-8385540D01*
X-10800000Y-8401433D01*
X-9200000Y-8401433D01*
X-9175759Y-8399500D01*
X-9099500Y-8399500D01*
X-9099500Y-9812664D01*
X-9160652Y-9800500D01*
X-9749625Y-9800500D01*
X-9849500Y-9900375D01*
X-9849500Y-10549500D01*
X-9829500Y-10549500D01*
X-9829500Y-10850500D01*
X-9849500Y-10850500D01*
X-9849500Y-10870500D01*
X-10150500Y-10870500D01*
X-10150500Y-10850500D01*
X-11099625Y-10850500D01*
X-11199500Y-10950375D01*
X-11199500Y-11239347D01*
X-11184148Y-11316530D01*
X-11154032Y-11389234D01*
X-11129800Y-11425500D01*
X-11900500Y-11425500D01*
X-11900500Y-10160653D01*
X-11199500Y-10160653D01*
X-11199500Y-10449625D01*
X-11099625Y-10549500D01*
X-10150500Y-10549500D01*
X-10150500Y-9900375D01*
X-10250375Y-9800500D01*
X-10839348Y-9800500D01*
X-10916530Y-9815853D01*
X-10989234Y-9845968D01*
X-11054667Y-9889688D01*
X-11110312Y-9945334D01*
X-11154032Y-10010766D01*
X-11184148Y-10083470D01*
X-11199500Y-10160653D01*
X-11900500Y-10160653D01*
X-11900500Y-7809902D01*
X-11900621Y-7804991D01*
X-11901108Y-7795137D01*
X-11902075Y-7785374D01*
X-11903530Y-7775616D01*
X-11904374Y-7770776D01*
X-12100390Y-6790696D01*
X-12101532Y-6785667D01*
X-12104090Y-6775617D01*
X-12107155Y-6765752D01*
X-12110741Y-6756022D01*
X-12112647Y-6751235D01*
X-12404287Y-6070741D01*
X-12406529Y-6065875D01*
X-12411295Y-6056225D01*
X-12416545Y-6046896D01*
X-12422320Y-6037814D01*
X-12425317Y-6033371D01*
X-12914224Y-5348902D01*
X-12919267Y-5342423D01*
X-12929929Y-5329836D01*
X-12935495Y-5323791D01*
X-13323791Y-4935495D01*
X-13329836Y-4929929D01*
X-13342423Y-4919267D01*
X-13348902Y-4914224D01*
X-14033371Y-4425317D01*
X-14037814Y-4422320D01*
X-14046896Y-4416545D01*
X-14056225Y-4411295D01*
X-14065875Y-4406529D01*
X-14070741Y-4404287D01*
X-14751235Y-4112647D01*
X-14756022Y-4110741D01*
X-14765752Y-4107155D01*
X-14775617Y-4104090D01*
X-14785667Y-4101532D01*
X-14790696Y-4100390D01*
X-15552142Y-3948101D01*
X-15465679Y-3825533D01*
X-15373989Y-3619594D01*
X-15324046Y-3399768D01*
X-15320451Y-3142286D01*
X-15364237Y-2921150D01*
X-15450141Y-2712731D01*
X-15574891Y-2524967D01*
X-15733736Y-2365009D01*
X-15920625Y-2238951D01*
X-16128439Y-2151594D01*
X-16349263Y-2106266D01*
X-16574686Y-2104692D01*
X-16796122Y-2146933D01*
X-17005136Y-2231380D01*
X-17118403Y-2305500D01*
X-17869500Y-2305500D01*
X-17869500Y-3104625D01*
X-17769625Y-3204500D01*
X-17618957Y-3204500D01*
X-17621011Y-3351653D01*
X-17580317Y-3573378D01*
X-17497331Y-3782976D01*
X-17421592Y-3900500D01*
X-19425500Y-3900500D01*
X-19425500Y-3114479D01*
X-19424667Y-3115312D01*
X-19359234Y-3159032D01*
X-19286530Y-3189147D01*
X-19209348Y-3204500D01*
X-18770375Y-3204500D01*
X-18670500Y-3104625D01*
X-18670500Y-2305500D01*
X-18690500Y-2305500D01*
X-18690500Y-1504500D01*
X-18670500Y-1504500D01*
X-18670500Y-1484500D01*
X-17869500Y-1484500D01*
X-17869500Y-1504500D01*
X-17070375Y-1504500D01*
X-16970500Y-1404625D01*
X-16970500Y-1099500D01*
X-16943799Y-1099500D01*
X-16891389Y-1231873D01*
X-16891389Y-1231873D01*
G37*
X-16891389Y-1231873D02*
X-16753338Y-1446087D01*
X-16576307Y-1629408D01*
X-16367041Y-1774851D01*
X-16133511Y-1876878D01*
X-15884610Y-1931602D01*
X-15629821Y-1936940D01*
X-15378848Y-1892686D01*
X-15141250Y-1800528D01*
X-14926077Y-1663975D01*
X-14741525Y-1488229D01*
X-14594624Y-1279983D01*
X-14529851Y-1134500D01*
X-14321900Y-1134500D01*
X-14103200Y-1353200D01*
X-14067519Y-1382509D01*
X-14032201Y-1412144D01*
X-14029902Y-1413408D01*
X-14027870Y-1415077D01*
X-14013598Y-1422730D01*
X-14015846Y-1424211D01*
X-14089119Y-1510182D01*
X-14135540Y-1613163D01*
X-14151433Y-1725000D01*
X-14151433Y-3505000D01*
X-14146360Y-3568619D01*
X-14112944Y-3676523D01*
X-14050789Y-3770846D01*
X-13964818Y-3844119D01*
X-13861837Y-3890540D01*
X-13750000Y-3906433D01*
X-10250000Y-3906433D01*
X-10186381Y-3901360D01*
X-10149500Y-3889939D01*
X-10149500Y-6598567D01*
X-10800000Y-6598567D01*
X-10863619Y-6603640D01*
X-10971523Y-6637056D01*
X-11065846Y-6699211D01*
X-11139119Y-6785182D01*
X-11185540Y-6888163D01*
X-11201433Y-7000000D01*
X-11201433Y-8000000D01*
X-11196360Y-8063619D01*
X-11162944Y-8171523D01*
X-11100789Y-8265846D01*
X-11014818Y-8339119D01*
X-10911837Y-8385540D01*
X-10800000Y-8401433D01*
X-9200000Y-8401433D01*
X-9175759Y-8399500D01*
X-9099500Y-8399500D01*
X-9099500Y-9812664D01*
X-9160652Y-9800500D01*
X-9749625Y-9800500D01*
X-9849500Y-9900375D01*
X-9849500Y-10549500D01*
X-9829500Y-10549500D01*
X-9829500Y-10850500D01*
X-9849500Y-10850500D01*
X-9849500Y-10870500D01*
X-10150500Y-10870500D01*
X-10150500Y-10850500D01*
X-11099625Y-10850500D01*
X-11199500Y-10950375D01*
X-11199500Y-11239347D01*
X-11184148Y-11316530D01*
X-11154032Y-11389234D01*
X-11129800Y-11425500D01*
X-11900500Y-11425500D01*
X-11900500Y-10160653D01*
X-11199500Y-10160653D01*
X-11199500Y-10449625D01*
X-11099625Y-10549500D01*
X-10150500Y-10549500D01*
X-10150500Y-9900375D01*
X-10250375Y-9800500D01*
X-10839348Y-9800500D01*
X-10916530Y-9815853D01*
X-10989234Y-9845968D01*
X-11054667Y-9889688D01*
X-11110312Y-9945334D01*
X-11154032Y-10010766D01*
X-11184148Y-10083470D01*
X-11199500Y-10160653D01*
X-11900500Y-10160653D01*
X-11900500Y-7809902D01*
X-11900621Y-7804991D01*
X-11901108Y-7795137D01*
X-11902075Y-7785374D01*
X-11903530Y-7775616D01*
X-11904374Y-7770776D01*
X-12100390Y-6790696D01*
X-12101532Y-6785667D01*
X-12104090Y-6775617D01*
X-12107155Y-6765752D01*
X-12110741Y-6756022D01*
X-12112647Y-6751235D01*
X-12404287Y-6070741D01*
X-12406529Y-6065875D01*
X-12411295Y-6056225D01*
X-12416545Y-6046896D01*
X-12422320Y-6037814D01*
X-12425317Y-6033371D01*
X-12914224Y-5348902D01*
X-12919267Y-5342423D01*
X-12929929Y-5329836D01*
X-12935495Y-5323791D01*
X-13323791Y-4935495D01*
X-13329836Y-4929929D01*
X-13342423Y-4919267D01*
X-13348902Y-4914224D01*
X-14033371Y-4425317D01*
X-14037814Y-4422320D01*
X-14046896Y-4416545D01*
X-14056225Y-4411295D01*
X-14065875Y-4406529D01*
X-14070741Y-4404287D01*
X-14751235Y-4112647D01*
X-14756022Y-4110741D01*
X-14765752Y-4107155D01*
X-14775617Y-4104090D01*
X-14785667Y-4101532D01*
X-14790696Y-4100390D01*
X-15552142Y-3948101D01*
X-15465679Y-3825533D01*
X-15373989Y-3619594D01*
X-15324046Y-3399768D01*
X-15320451Y-3142286D01*
X-15364237Y-2921150D01*
X-15450141Y-2712731D01*
X-15574891Y-2524967D01*
X-15733736Y-2365009D01*
X-15920625Y-2238951D01*
X-16128439Y-2151594D01*
X-16349263Y-2106266D01*
X-16574686Y-2104692D01*
X-16796122Y-2146933D01*
X-17005136Y-2231380D01*
X-17118403Y-2305500D01*
X-17869500Y-2305500D01*
X-17869500Y-3104625D01*
X-17769625Y-3204500D01*
X-17618957Y-3204500D01*
X-17621011Y-3351653D01*
X-17580317Y-3573378D01*
X-17497331Y-3782976D01*
X-17421592Y-3900500D01*
X-19425500Y-3900500D01*
X-19425500Y-3114479D01*
X-19424667Y-3115312D01*
X-19359234Y-3159032D01*
X-19286530Y-3189147D01*
X-19209348Y-3204500D01*
X-18770375Y-3204500D01*
X-18670500Y-3104625D01*
X-18670500Y-2305500D01*
X-18690500Y-2305500D01*
X-18690500Y-1504500D01*
X-18670500Y-1504500D01*
X-18670500Y-1484500D01*
X-17869500Y-1484500D01*
X-17869500Y-1504500D01*
X-17070375Y-1504500D01*
X-16970500Y-1404625D01*
X-16970500Y-1099500D01*
X-16943799Y-1099500D01*
X-16891389Y-1231873D01*
M02*
