G04 #@! TF.FileFunction,Soldermask,Top*
%FSLAX46Y46*%
G04 Gerber Fmt 4.6, Leading zero omitted, Abs format (unit mm)*
G04 Created by KiCad (PCBNEW (2015-08-26 BZR 6129, Git 2e41367)-product) date 9/23/2019 12:40:44 AM*
%MOMM*%
G01*
G04 APERTURE LIST*
%ADD10C,0.100000*%
%ADD11C,7.500000*%
%ADD12R,2.000000X1.400000*%
%ADD13R,1.300000X1.700000*%
%ADD14R,1.700000X1.300000*%
%ADD15R,2.400000X2.200000*%
%ADD16O,2.400000X2.200000*%
%ADD17C,2.400000*%
%ADD18R,2.400000X2.400000*%
%ADD19O,1.900000X2.900000*%
%ADD20R,4.700000X2.200000*%
%ADD21R,1.600000X1.750000*%
%ADD22R,1.750000X1.600000*%
%ADD23R,3.000000X3.000000*%
%ADD24R,2.200000X2.200000*%
%ADD25C,2.200000*%
%ADD26C,1.900000*%
%ADD27R,3.900000X2.180000*%
%ADD28R,1.400000X1.800000*%
%ADD29R,1.000000X2.400000*%
G04 APERTURE END LIST*
D10*
D11*
X-16000000Y-8000000D02*
X-16000000Y-12000000D01*
X-20000000Y-8000000D02*
X-16000000Y-8000000D01*
X-16000000Y8000000D02*
X-20000000Y8000000D01*
X-16000000Y12000000D02*
X-16000000Y8000000D01*
X16000000Y8000000D02*
X16000000Y12000000D01*
X20000000Y8000000D02*
X16000000Y8000000D01*
X16000000Y-8000000D02*
X20000000Y-8000000D01*
X16000000Y-12000000D02*
X16000000Y-8000000D01*
D12*
X-10000000Y-7500000D03*
X-10000000Y-10700000D03*
D13*
X7450000Y0D03*
X9550000Y0D03*
D14*
X-10500000Y8550000D03*
X-10500000Y6450000D03*
D15*
X10160000Y5460000D03*
D16*
X7620000Y5460000D03*
D17*
X10160000Y8000000D03*
D16*
X7620000Y8000000D03*
D17*
X10160000Y10540000D03*
D16*
X7620000Y10540000D03*
D18*
X16000000Y-2540000D03*
X13460000Y-2540000D03*
D17*
X16000000Y0D03*
D16*
X13460000Y0D03*
D17*
X16000000Y2540000D03*
D16*
X13460000Y2540000D03*
D19*
X460000Y1000000D03*
X3000000Y1000000D03*
X5540000Y1000000D03*
D20*
X2750000Y-7500000D03*
X9250000Y-7500000D03*
D13*
X4950000Y-2000000D03*
X7050000Y-2000000D03*
X-2950000Y2500000D03*
X-5050000Y2500000D03*
X-6950000Y2500000D03*
X-9050000Y2500000D03*
X9550000Y2000000D03*
X7450000Y2000000D03*
D21*
X-2700000Y-4525000D03*
X-4500000Y-4525000D03*
X-6300000Y-4525000D03*
X-6300000Y-10475000D03*
X-4500000Y-10475000D03*
X-2700000Y-10475000D03*
D22*
X-7475000Y-7500000D03*
X-1525000Y-7500000D03*
D23*
X-4500000Y-7500000D03*
D24*
X-18270000Y-1905000D03*
D25*
X-15730000Y-635000D03*
X-18270000Y635000D03*
X-15730000Y1905000D03*
D26*
X-16470000Y-3255000D03*
D27*
X-12000000Y2615000D03*
X-12000000Y-2615000D03*
D28*
X-7050000Y100000D03*
X-8950000Y100000D03*
X-8000000Y-2100000D03*
X-3050000Y100000D03*
X-4950000Y100000D03*
X-4000000Y-2100000D03*
D29*
X-940000Y10100000D03*
X-2210000Y10100000D03*
X-3480000Y10100000D03*
X-4750000Y10100000D03*
X-6020000Y10100000D03*
X-7290000Y10100000D03*
X-8560000Y10100000D03*
X-8560000Y4900000D03*
X-7290000Y4900000D03*
X-6020000Y4900000D03*
X-4750000Y4900000D03*
X-3480000Y4900000D03*
X-2210000Y4900000D03*
X-940000Y4900000D03*
D13*
X450000Y-2000000D03*
X2550000Y-2000000D03*
M02*
