M48
;DRILL file {KiCad (2015-08-26 BZR 6129, Git 2e41367)-product} date 9/23/2019 12:40:45 AM
;FORMAT={-:-/ absolute / metric / decimal}
FMAT,2
METRIC,TZ
T1C0.300
T2C0.800
T3C1.000
T4C1.500
%
G90
G05
M71
T1
X-11.3Y-10.7
X-10.5Y9.5
X-10.5Y5.5
X-10.Y-9.7
X-8.5Y8.
X-7.75Y2.5
X-7.Y7.25
X-7.Y-0.8
X-7.Y-4.6
X-6.4Y0.1
X-6.Y-7.5
X-5.75Y6.5
X-5.25Y-6.75
X-5.25Y-8.25
X-5.2Y-4.6
X-5.Y1.
X-4.75Y6.5
X-4.7Y-2.1
X-4.5Y-6.
X-4.5Y-7.5
X-4.5Y-9.
X-3.75Y-6.75
X-3.75Y-8.25
X-3.Y8.4
X-3.Y-7.5
X-2.Y2.5
X-1.5Y-6.75
X-1.5Y-8.25
X0.Y10.
X0.Y5.
X0.2Y9.
X3.25Y-2.
X7.75Y-2.
X8.25Y-6.
X8.25Y-9.
X9.Y0.
X10.25Y-6.
X10.25Y-9.
T2
X-18.27Y0.635
X-18.27Y-1.905
X-15.73Y1.905
X-15.73Y-0.635
T3
X0.46Y1.
X3.Y1.
X5.54Y1.
X7.62Y10.54
X7.62Y8.
X7.62Y5.46
X10.16Y10.54
X10.16Y8.
X10.16Y5.46
X13.46Y2.54
X13.46Y0.
X13.46Y-2.54
X16.Y2.54
X16.Y0.
X16.Y-2.54
T4
X-16.47Y-3.255
T0
M30
