G04 #@! TF.FileFunction,Legend,Top*
%FSLAX46Y46*%
G04 Gerber Fmt 4.6, Leading zero omitted, Abs format (unit mm)*
G04 Created by KiCad (PCBNEW (2015-08-26 BZR 6129, Git 2e41367)-product) date 9/23/2019 12:40:44 AM*
%MOMM*%
G01*
G04 APERTURE LIST*
%ADD10C,0.100000*%
%ADD11C,0.150000*%
%ADD12C,0.250000*%
%ADD13C,0.120000*%
%ADD14C,7.500000*%
%ADD15R,2.000000X1.400000*%
%ADD16R,1.300000X1.700000*%
%ADD17R,1.700000X1.300000*%
%ADD18R,2.400000X2.200000*%
%ADD19O,2.400000X2.200000*%
%ADD20C,2.400000*%
%ADD21R,2.400000X2.400000*%
%ADD22O,1.900000X2.900000*%
%ADD23R,4.700000X2.200000*%
%ADD24R,1.600000X1.750000*%
%ADD25R,1.750000X1.600000*%
%ADD26R,3.000000X3.000000*%
%ADD27R,2.200000X2.200000*%
%ADD28C,2.200000*%
%ADD29C,1.900000*%
%ADD30R,3.900000X2.180000*%
%ADD31R,1.400000X1.800000*%
%ADD32R,1.000000X2.400000*%
G04 APERTURE END LIST*
D10*
D11*
X11321429Y-2920952D02*
X11321429Y-2159047D01*
X11654762Y2254286D02*
X11702381Y2397143D01*
X11702381Y2635239D01*
X11654762Y2730477D01*
X11607143Y2778096D01*
X11511905Y2825715D01*
X11416667Y2825715D01*
X11321429Y2778096D01*
X11273810Y2730477D01*
X11226190Y2635239D01*
X11178571Y2444762D01*
X11130952Y2349524D01*
X11083333Y2301905D01*
X10988095Y2254286D01*
X10892857Y2254286D01*
X10797619Y2301905D01*
X10750000Y2349524D01*
X10702381Y2444762D01*
X10702381Y2682858D01*
X10750000Y2825715D01*
X11321429Y-380952D02*
X11321429Y380953D01*
X11702381Y1D02*
X10940476Y1D01*
X-9200000Y-7500000D02*
X-9200000Y-10700000D01*
X-9200000Y-10700000D02*
X-10800000Y-10700000D01*
X-10800000Y-10700000D02*
X-10800000Y-7500000D01*
X-10800000Y-7500000D02*
X-9200000Y-7500000D01*
X7500000Y-562500D02*
X9500000Y-562500D01*
X9500000Y-562500D02*
X9500000Y562500D01*
X9500000Y562500D02*
X7500000Y562500D01*
X7500000Y562500D02*
X7500000Y-562500D01*
X-11062500Y8500000D02*
X-11062500Y6500000D01*
X-11062500Y6500000D02*
X-9937500Y6500000D01*
X-9937500Y6500000D02*
X-9937500Y8500000D01*
X-9937500Y8500000D02*
X-11062500Y8500000D01*
X4500000Y4500000D02*
X4500000Y2500000D01*
X4500000Y2500000D02*
X5500000Y2500000D01*
X3000000Y4500000D02*
X3000000Y2500000D01*
X500000Y2500000D02*
X1500000Y2500000D01*
X1500000Y2500000D02*
X1500000Y4500000D01*
X5000000Y9000000D02*
X5000000Y4500000D01*
X1000000Y4500000D02*
X1000000Y9000000D01*
X5000000Y9000000D02*
G75*
G03X1000000Y9000000I-2000000J0D01*
G01*
X500000Y4500000D02*
X500000Y11500000D01*
X500000Y11500000D02*
X5500000Y11500000D01*
X5500000Y11500000D02*
X5500000Y4500000D01*
X5500000Y4500000D02*
X500000Y4500000D01*
X2850000Y-11650000D02*
X1850000Y-10650000D01*
X1850000Y-4350000D02*
X2850000Y-3350000D01*
X10150000Y-3350000D02*
X10150000Y-11650000D01*
X10150000Y-11650000D02*
X2850000Y-11650000D01*
X1850000Y-10650000D02*
X1850000Y-4350000D01*
X2850000Y-3350000D02*
X10150000Y-3350000D01*
X10000000Y-7500000D02*
G75*
G03X10000000Y-7500000I-4000000J0D01*
G01*
X5000000Y-2562500D02*
X7000000Y-2562500D01*
X7000000Y-2562500D02*
X7000000Y-1437500D01*
X7000000Y-1437500D02*
X5000000Y-1437500D01*
X5000000Y-1437500D02*
X5000000Y-2562500D01*
X-3000000Y3062500D02*
X-5000000Y3062500D01*
X-5000000Y3062500D02*
X-5000000Y1937500D01*
X-5000000Y1937500D02*
X-3000000Y1937500D01*
X-3000000Y1937500D02*
X-3000000Y3062500D01*
X-7000000Y3062500D02*
X-9000000Y3062500D01*
X-9000000Y3062500D02*
X-9000000Y1937500D01*
X-9000000Y1937500D02*
X-7000000Y1937500D01*
X-7000000Y1937500D02*
X-7000000Y3062500D01*
X9500000Y2562500D02*
X7500000Y2562500D01*
X7500000Y2562500D02*
X7500000Y1437500D01*
X7500000Y1437500D02*
X9500000Y1437500D01*
X9500000Y1437500D02*
X9500000Y2562500D01*
D12*
X-1375000Y-2750000D02*
G75*
G03X-1375000Y-2750000I-125000J0D01*
G01*
D11*
X-8500000Y-3500000D02*
X-8500000Y-11500000D01*
X-8500000Y-11500000D02*
X-500000Y-11500000D01*
X-500000Y-11500000D02*
X-500000Y-3500000D01*
X-500000Y-3500000D02*
X-8500000Y-3500000D01*
X-19550000Y-4300000D02*
X-19550000Y4300000D01*
X-19550000Y4300000D02*
X-14450000Y4300000D01*
X-14450000Y4300000D02*
X-14450000Y-4300000D01*
X-14450000Y-4300000D02*
X-19550000Y-4300000D01*
X-10380000Y2275000D02*
X-10380000Y-2275000D01*
X-10380000Y-2275000D02*
X-13620000Y-2275000D01*
X-13620000Y-2275000D02*
X-13620000Y2275000D01*
X-13620000Y2275000D02*
X-10380000Y2275000D01*
X-6540000Y-350000D02*
X-6540000Y-1650000D01*
X-6540000Y-1650000D02*
X-9460000Y-1650000D01*
X-9460000Y-1650000D02*
X-9460000Y-350000D01*
X-9460000Y-350000D02*
X-6540000Y-350000D01*
X-2540000Y-350000D02*
X-2540000Y-1650000D01*
X-2540000Y-1650000D02*
X-5460000Y-1650000D01*
X-5460000Y-1650000D02*
X-5460000Y-350000D01*
X-5460000Y-350000D02*
X-2540000Y-350000D01*
X-250000Y9500000D02*
X-9250000Y9500000D01*
X-9250000Y9500000D02*
X-9250000Y5500000D01*
X-9250000Y5500000D02*
X-250000Y5500000D01*
X-250000Y5500000D02*
X-250000Y9500000D01*
D12*
X-625000Y8500000D02*
G75*
G03X-625000Y8500000I-125000J0D01*
G01*
D11*
X500000Y-2562500D02*
X2500000Y-2562500D01*
X2500000Y-2562500D02*
X2500000Y-1437500D01*
X2500000Y-1437500D02*
X500000Y-1437500D01*
X500000Y-1437500D02*
X500000Y-2562500D01*
D10*
X-10083333Y-6528571D02*
X-10107143Y-6552381D01*
X-10178571Y-6576190D01*
X-10226190Y-6576190D01*
X-10297619Y-6552381D01*
X-10345238Y-6504762D01*
X-10369047Y-6457143D01*
X-10392857Y-6361905D01*
X-10392857Y-6290476D01*
X-10369047Y-6195238D01*
X-10345238Y-6147619D01*
X-10297619Y-6100000D01*
X-10226190Y-6076190D01*
X-10178571Y-6076190D01*
X-10107143Y-6100000D01*
X-10083333Y-6123810D01*
X-9607143Y-6576190D02*
X-9892857Y-6576190D01*
X-9750000Y-6576190D02*
X-9750000Y-6076190D01*
X-9797619Y-6147619D01*
X-9845238Y-6195238D01*
X-9892857Y-6219048D01*
X9316667Y-2378571D02*
X9292857Y-2402381D01*
X9221429Y-2426190D01*
X9173810Y-2426190D01*
X9102381Y-2402381D01*
X9054762Y-2354762D01*
X9030953Y-2307143D01*
X9007143Y-2211905D01*
X9007143Y-2140476D01*
X9030953Y-2045238D01*
X9054762Y-1997619D01*
X9102381Y-1950000D01*
X9173810Y-1926190D01*
X9221429Y-1926190D01*
X9292857Y-1950000D01*
X9316667Y-1973810D01*
X9745238Y-2092857D02*
X9745238Y-2426190D01*
X9626191Y-1902381D02*
X9507143Y-2259524D01*
X9816667Y-2259524D01*
X-11333333Y5071429D02*
X-11357143Y5047619D01*
X-11428571Y5023810D01*
X-11476190Y5023810D01*
X-11547619Y5047619D01*
X-11595238Y5095238D01*
X-11619047Y5142857D01*
X-11642857Y5238095D01*
X-11642857Y5309524D01*
X-11619047Y5404762D01*
X-11595238Y5452381D01*
X-11547619Y5500000D01*
X-11476190Y5523810D01*
X-11428571Y5523810D01*
X-11357143Y5500000D01*
X-11333333Y5476190D01*
X-10880952Y5523810D02*
X-11119047Y5523810D01*
X-11142857Y5285714D01*
X-11119047Y5309524D01*
X-11071428Y5333333D01*
X-10952381Y5333333D01*
X-10904762Y5309524D01*
X-10880952Y5285714D01*
X-10857143Y5238095D01*
X-10857143Y5119048D01*
X-10880952Y5071429D01*
X-10904762Y5047619D01*
X-10952381Y5023810D01*
X-11071428Y5023810D01*
X-11119047Y5047619D01*
X-11142857Y5071429D01*
D13*
X7866667Y3383333D02*
X7866667Y4083333D01*
X8600000Y3450000D02*
X8566666Y3416667D01*
X8466666Y3383333D01*
X8400000Y3383333D01*
X8300000Y3416667D01*
X8233333Y3483333D01*
X8200000Y3550000D01*
X8166666Y3683333D01*
X8166666Y3783333D01*
X8200000Y3916667D01*
X8233333Y3983333D01*
X8300000Y4050000D01*
X8400000Y4083333D01*
X8466666Y4083333D01*
X8566666Y4050000D01*
X8600000Y4016667D01*
X8866666Y3416667D02*
X8966666Y3383333D01*
X9133333Y3383333D01*
X9200000Y3416667D01*
X9233333Y3450000D01*
X9266666Y3516667D01*
X9266666Y3583333D01*
X9233333Y3650000D01*
X9200000Y3683333D01*
X9133333Y3716667D01*
X9000000Y3750000D01*
X8933333Y3783333D01*
X8900000Y3816667D01*
X8866666Y3883333D01*
X8866666Y3950000D01*
X8900000Y4016667D01*
X8933333Y4050000D01*
X9000000Y4083333D01*
X9166666Y4083333D01*
X9266666Y4050000D01*
X9566667Y3383333D02*
X9566667Y4083333D01*
X9833333Y4083333D01*
X9900000Y4050000D01*
X9933333Y4016667D01*
X9966667Y3950000D01*
X9966667Y3850000D01*
X9933333Y3783333D01*
X9900000Y3750000D01*
X9833333Y3716667D01*
X9566667Y3716667D01*
X366667Y2966667D02*
X933333Y2966667D01*
X1000000Y3000000D01*
X1033333Y3033333D01*
X1066667Y3100000D01*
X1066667Y3233333D01*
X1033333Y3300000D01*
X1000000Y3333333D01*
X933333Y3366667D01*
X366667Y3366667D01*
X433333Y3666666D02*
X400000Y3700000D01*
X366667Y3766666D01*
X366667Y3933333D01*
X400000Y4000000D01*
X433333Y4033333D01*
X500000Y4066666D01*
X566667Y4066666D01*
X666667Y4033333D01*
X1066667Y3633333D01*
X1066667Y4066666D01*
X11350000Y-10816666D02*
X11383333Y-10850000D01*
X11416667Y-10950000D01*
X11416667Y-11016666D01*
X11383333Y-11116666D01*
X11316667Y-11183333D01*
X11250000Y-11216666D01*
X11116667Y-11250000D01*
X11016667Y-11250000D01*
X10883333Y-11216666D01*
X10816667Y-11183333D01*
X10750000Y-11116666D01*
X10716667Y-11016666D01*
X10716667Y-10950000D01*
X10750000Y-10850000D01*
X10783333Y-10816666D01*
X10783333Y-10550000D02*
X10750000Y-10516666D01*
X10716667Y-10450000D01*
X10716667Y-10283333D01*
X10750000Y-10216666D01*
X10783333Y-10183333D01*
X10850000Y-10150000D01*
X10916667Y-10150000D01*
X11016667Y-10183333D01*
X11416667Y-10583333D01*
X11416667Y-10150000D01*
D10*
X4078571Y-2083333D02*
X4102381Y-2107143D01*
X4126190Y-2178571D01*
X4126190Y-2226190D01*
X4102381Y-2297619D01*
X4054762Y-2345238D01*
X4007143Y-2369047D01*
X3911905Y-2392857D01*
X3840476Y-2392857D01*
X3745238Y-2369047D01*
X3697619Y-2345238D01*
X3650000Y-2297619D01*
X3626190Y-2226190D01*
X3626190Y-2178571D01*
X3650000Y-2107143D01*
X3673810Y-2083333D01*
X3626190Y-1916666D02*
X3626190Y-1607143D01*
X3816667Y-1773809D01*
X3816667Y-1702381D01*
X3840476Y-1654762D01*
X3864286Y-1630952D01*
X3911905Y-1607143D01*
X4030952Y-1607143D01*
X4078571Y-1630952D01*
X4102381Y-1654762D01*
X4126190Y-1702381D01*
X4126190Y-1845238D01*
X4102381Y-1892857D01*
X4078571Y-1916666D01*
X-1273810Y2416667D02*
X-1511905Y2250000D01*
X-1273810Y2130953D02*
X-1773810Y2130953D01*
X-1773810Y2321429D01*
X-1750000Y2369048D01*
X-1726190Y2392857D01*
X-1678571Y2416667D01*
X-1607143Y2416667D01*
X-1559524Y2392857D01*
X-1535714Y2369048D01*
X-1511905Y2321429D01*
X-1511905Y2130953D01*
X-1726190Y2607143D02*
X-1750000Y2630953D01*
X-1773810Y2678572D01*
X-1773810Y2797619D01*
X-1750000Y2845238D01*
X-1726190Y2869048D01*
X-1678571Y2892857D01*
X-1630952Y2892857D01*
X-1559524Y2869048D01*
X-1273810Y2583334D01*
X-1273810Y2892857D01*
X-9833333Y4023810D02*
X-10000000Y4261905D01*
X-10119047Y4023810D02*
X-10119047Y4523810D01*
X-9928571Y4523810D01*
X-9880952Y4500000D01*
X-9857143Y4476190D01*
X-9833333Y4428571D01*
X-9833333Y4357143D01*
X-9857143Y4309524D01*
X-9880952Y4285714D01*
X-9928571Y4261905D01*
X-10119047Y4261905D01*
X-9666666Y4523810D02*
X-9357143Y4523810D01*
X-9523809Y4333333D01*
X-9452381Y4333333D01*
X-9404762Y4309524D01*
X-9380952Y4285714D01*
X-9357143Y4238095D01*
X-9357143Y4119048D01*
X-9380952Y4071429D01*
X-9404762Y4047619D01*
X-9452381Y4023810D01*
X-9595238Y4023810D01*
X-9642857Y4047619D01*
X-9666666Y4071429D01*
X9316667Y-1626190D02*
X9150000Y-1388095D01*
X9030953Y-1626190D02*
X9030953Y-1126190D01*
X9221429Y-1126190D01*
X9269048Y-1150000D01*
X9292857Y-1173810D01*
X9316667Y-1221429D01*
X9316667Y-1292857D01*
X9292857Y-1340476D01*
X9269048Y-1364286D01*
X9221429Y-1388095D01*
X9030953Y-1388095D01*
X9745238Y-1292857D02*
X9745238Y-1626190D01*
X9626191Y-1102381D02*
X9507143Y-1459524D01*
X9816667Y-1459524D01*
D13*
X816667Y-11100000D02*
X116667Y-11100000D01*
X116667Y-10833334D01*
X150000Y-10766667D01*
X183333Y-10733334D01*
X250000Y-10700000D01*
X350000Y-10700000D01*
X416667Y-10733334D01*
X450000Y-10766667D01*
X483333Y-10833334D01*
X483333Y-11100000D01*
X783333Y-10433334D02*
X816667Y-10333334D01*
X816667Y-10166667D01*
X783333Y-10100000D01*
X750000Y-10066667D01*
X683333Y-10033334D01*
X616667Y-10033334D01*
X550000Y-10066667D01*
X516667Y-10100000D01*
X483333Y-10166667D01*
X450000Y-10300000D01*
X416667Y-10366667D01*
X383333Y-10400000D01*
X316667Y-10433334D01*
X250000Y-10433334D01*
X183333Y-10400000D01*
X150000Y-10366667D01*
X116667Y-10300000D01*
X116667Y-10133334D01*
X150000Y-10033334D01*
X816667Y-9366667D02*
X816667Y-9766667D01*
X816667Y-9566667D02*
X116667Y-9566667D01*
X216667Y-9633333D01*
X283333Y-9700000D01*
X316667Y-9766667D01*
D10*
X-11166666Y-4464286D02*
X-11333332Y-4464286D01*
X-11333332Y-4726190D02*
X-11333332Y-4226190D01*
X-11095237Y-4226190D01*
X-10642857Y-4726190D02*
X-10928571Y-4726190D01*
X-10785714Y-4726190D02*
X-10785714Y-4226190D01*
X-10833333Y-4297619D01*
X-10880952Y-4345238D01*
X-10928571Y-4369048D01*
X-6373810Y-2769047D02*
X-6873810Y-2769047D01*
X-6873810Y-2650000D01*
X-6850000Y-2578571D01*
X-6802381Y-2530952D01*
X-6754762Y-2507143D01*
X-6659524Y-2483333D01*
X-6588095Y-2483333D01*
X-6492857Y-2507143D01*
X-6445238Y-2530952D01*
X-6397619Y-2578571D01*
X-6373810Y-2650000D01*
X-6373810Y-2769047D01*
X-6373810Y-2007143D02*
X-6373810Y-2292857D01*
X-6373810Y-2150000D02*
X-6873810Y-2150000D01*
X-6802381Y-2197619D01*
X-6754762Y-2245238D01*
X-6730952Y-2292857D01*
X-2373810Y-2769047D02*
X-2873810Y-2769047D01*
X-2873810Y-2650000D01*
X-2850000Y-2578571D01*
X-2802381Y-2530952D01*
X-2754762Y-2507143D01*
X-2659524Y-2483333D01*
X-2588095Y-2483333D01*
X-2492857Y-2507143D01*
X-2445238Y-2530952D01*
X-2397619Y-2578571D01*
X-2373810Y-2650000D01*
X-2373810Y-2769047D01*
X-2826190Y-2292857D02*
X-2850000Y-2269047D01*
X-2873810Y-2221428D01*
X-2873810Y-2102381D01*
X-2850000Y-2054762D01*
X-2826190Y-2030952D01*
X-2778571Y-2007143D01*
X-2730952Y-2007143D01*
X-2659524Y-2030952D01*
X-2373810Y-2316666D01*
X-2373810Y-2007143D01*
D13*
X-10533333Y11133333D02*
X-10533333Y10566667D01*
X-10500000Y10500000D01*
X-10466667Y10466667D01*
X-10400000Y10433333D01*
X-10266667Y10433333D01*
X-10200000Y10466667D01*
X-10166667Y10500000D01*
X-10133333Y10566667D01*
X-10133333Y11133333D01*
X-9433334Y10433333D02*
X-9833334Y10433333D01*
X-9633334Y10433333D02*
X-9633334Y11133333D01*
X-9700000Y11033333D01*
X-9766667Y10966667D01*
X-9833334Y10933333D01*
D10*
X-373810Y-2083333D02*
X-611905Y-2250000D01*
X-373810Y-2369047D02*
X-873810Y-2369047D01*
X-873810Y-2178571D01*
X-850000Y-2130952D01*
X-826190Y-2107143D01*
X-778571Y-2083333D01*
X-707143Y-2083333D01*
X-659524Y-2107143D01*
X-635714Y-2130952D01*
X-611905Y-2178571D01*
X-611905Y-2369047D01*
X-373810Y-1607143D02*
X-373810Y-1892857D01*
X-373810Y-1750000D02*
X-873810Y-1750000D01*
X-802381Y-1797619D01*
X-754762Y-1845238D01*
X-730952Y-1892857D01*
%LPC*%
D14*
X-16000000Y-8000000D02*
X-16000000Y-12000000D01*
X-20000000Y-8000000D02*
X-16000000Y-8000000D01*
X-16000000Y8000000D02*
X-20000000Y8000000D01*
X-16000000Y12000000D02*
X-16000000Y8000000D01*
X16000000Y8000000D02*
X16000000Y12000000D01*
X20000000Y8000000D02*
X16000000Y8000000D01*
X16000000Y-8000000D02*
X20000000Y-8000000D01*
X16000000Y-12000000D02*
X16000000Y-8000000D01*
D15*
X-10000000Y-7500000D03*
X-10000000Y-10700000D03*
D16*
X7450000Y0D03*
X9550000Y0D03*
D17*
X-10500000Y8550000D03*
X-10500000Y6450000D03*
D18*
X10160000Y5460000D03*
D19*
X7620000Y5460000D03*
D20*
X10160000Y8000000D03*
D19*
X7620000Y8000000D03*
D20*
X10160000Y10540000D03*
D19*
X7620000Y10540000D03*
D21*
X16000000Y-2540000D03*
X13460000Y-2540000D03*
D20*
X16000000Y0D03*
D19*
X13460000Y0D03*
D20*
X16000000Y2540000D03*
D19*
X13460000Y2540000D03*
D22*
X460000Y1000000D03*
X3000000Y1000000D03*
X5540000Y1000000D03*
D23*
X2750000Y-7500000D03*
X9250000Y-7500000D03*
D16*
X4950000Y-2000000D03*
X7050000Y-2000000D03*
X-2950000Y2500000D03*
X-5050000Y2500000D03*
X-6950000Y2500000D03*
X-9050000Y2500000D03*
X9550000Y2000000D03*
X7450000Y2000000D03*
D24*
X-2700000Y-4525000D03*
X-4500000Y-4525000D03*
X-6300000Y-4525000D03*
X-6300000Y-10475000D03*
X-4500000Y-10475000D03*
X-2700000Y-10475000D03*
D25*
X-7475000Y-7500000D03*
X-1525000Y-7500000D03*
D26*
X-4500000Y-7500000D03*
D27*
X-18270000Y-1905000D03*
D28*
X-15730000Y-635000D03*
X-18270000Y635000D03*
X-15730000Y1905000D03*
D29*
X-16470000Y-3255000D03*
D30*
X-12000000Y2615000D03*
X-12000000Y-2615000D03*
D31*
X-7050000Y100000D03*
X-8950000Y100000D03*
X-8000000Y-2100000D03*
X-3050000Y100000D03*
X-4950000Y100000D03*
X-4000000Y-2100000D03*
D32*
X-940000Y10100000D03*
X-2210000Y10100000D03*
X-3480000Y10100000D03*
X-4750000Y10100000D03*
X-6020000Y10100000D03*
X-7290000Y10100000D03*
X-8560000Y10100000D03*
X-8560000Y4900000D03*
X-7290000Y4900000D03*
X-6020000Y4900000D03*
X-4750000Y4900000D03*
X-3480000Y4900000D03*
X-2210000Y4900000D03*
X-940000Y4900000D03*
D16*
X450000Y-2000000D03*
X2550000Y-2000000D03*
M02*
